<?xml version="1.0" encoding="utf-8" ?>
<svg baseProfile="full" height="713" shape-rendering="geometricPrecision" version="1.1" viewBox="0 0 811 713" width="811" xmlns="http://www.w3.org/2000/svg" xmlns:ev="http://www.w3.org/2001/xml-events" xmlns:xlink="http://www.w3.org/1999/xlink"><defs /><path d="M 357 634 375 656 404 657 405 649 407 657 416 658 407 660 407 670 426 670 461 681 501 674 479 669 480 664 474 660 475 657 489 653 499 658 494 651 501 647 493 649 483 635 490 651 471 656 466 651 459 651 467 645 454 646 448 651 435 649 429 653 426 650 427 632 418 631 423 628 413 628 413 623 Z" fill="rgb(37,49,141)" stroke="none" /><path d="M 399 563 372 542 295 549 211 545 217 555 231 550 236 556 237 551 242 554 244 561 240 565 205 569 214 576 254 584 293 584 296 587 287 590 293 591 368 577 397 569 Z" fill="rgb(37,49,141)" stroke="none" /><path d="M 58 410 60 418 52 429 64 436 67 450 117 481 178 503 179 512 261 523 346 521 338 516 241 513 179 501 162 493 146 472 92 442 Z" fill="rgb(37,49,141)" stroke="none" /><path d="M 258 410 257 414 268 442 294 443 301 440 306 443 307 450 300 455 296 455 294 452 272 452 284 479 287 477 290 479 292 477 323 475 329 485 344 485 353 479 362 459 350 434 347 432 337 438 328 438 318 432 313 424 280 424 267 405 Z" fill="rgb(37,49,141)" stroke="none" /><path d="M 288 411 313 411 314 410 315 407 320 402 320 401 319 400 316 400 315 399 313 399 312 398 309 398 308 397 307 398 306 398 305 397 304 398 303 398 301 396 300 396 297 398 294 398 294 399 293 400 292 400 292 401 291 402 291 404 292 405 294 405 295 406 295 408 296 409 296 410 295 411 Z" fill="rgb(37,49,141)" stroke="none" /><path d="M 124 152 124 154 127 158 127 160 129 162 130 165 137 173 138 173 144 178 150 181 152 181 155 183 161 184 162 185 164 185 165 186 169 187 169 183 170 182 168 180 161 177 157 174 155 174 153 172 143 167 140 164 139 164 126 151 Z" fill="rgb(37,49,141)" stroke="none" /><path d="M 529 114 500 104 495 98 464 112 430 136 394 169 366 202 347 232 383 198 434 160 490 131 530 118 Z" fill="rgb(37,49,141)" stroke="none" /><path d="M 202 82 240 91 284 112 302 125 321 144 339 169 338 158 327 131 311 115 295 103 234 78 208 76 Z" fill="rgb(37,49,141)" stroke="none" /><path d="M 135 74 137 126 150 146 178 159 235 173 273 189 278 187 334 230 308 179 277 148 233 122 188 106 182 108 182 104 175 109 149 108 135 87 Z" fill="rgb(37,49,141)" stroke="none" /><path d="M 247 641 303 667 363 681 483 679 476 687 496 694 438 700 336 693 349 688 337 684 295 691 434 703 544 694 500 681 610 632 526 668 464 682 407 671 406 660 417 658 406 657 405 632 404 658 379 658 356 635 Z" fill="rgb(32,89,189)" stroke="none" /><path d="M 115 518 139 549 144 551 146 557 151 559 163 572 165 578 179 587 184 594 248 596 281 593 288 588 295 587 293 585 254 585 186 569 149 551 Z" fill="rgb(32,89,189)" stroke="none" /><path d="M 148 474 156 480 162 492 186 502 241 512 298 515 275 514 275 510 272 507 274 502 221 495 171 481 165 481 150 473 Z" fill="rgb(32,89,189)" stroke="none" /><path d="M 353 412 353 421 352 422 352 425 349 429 348 432 351 434 353 438 353 440 355 443 355 445 361 457 362 457 365 451 365 449 367 446 367 444 371 434 371 431 374 427 374 423 376 421 378 414 377 416 374 416 373 415 367 418 363 415 361 415 359 413 356 412 354 417 353 416 Z" fill="rgb(32,89,189)" stroke="none" /><path d="M 244 376 243 377 243 379 245 382 245 384 246 385 246 387 248 390 248 392 250 395 250 397 253 402 253 404 254 405 254 407 257 412 257 410 258 409 259 409 262 406 265 406 267 404 266 403 266 402 264 400 264 399 261 396 261 395 259 393 259 392 256 389 256 388 250 381 250 380 247 377 Z" fill="rgb(32,89,189)" stroke="none" /><path d="M 334 362 332 366 332 370 330 376 333 377 338 376 343 379 346 379 351 384 349 390 341 397 342 400 348 405 353 402 363 404 365 402 367 402 369 404 377 404 379 403 378 399 371 395 371 393 365 386 362 381 362 378 360 376 358 376 356 378 353 378 351 376 352 374 348 373 349 370 347 367 342 367 341 366 342 365 340 363 338 364 336 361 Z" fill="rgb(32,89,189)" stroke="none" /><path d="M 14 340 10 359 12 394 21 418 36 440 57 460 99 485 152 505 179 511 176 503 124 485 89 467 45 430 30 410 19 387 14 366 Z" fill="rgb(32,89,189)" stroke="none" /><path d="M 375 304 378 305 379 307 371 311 370 314 368 313 367 315 380 343 380 346 386 359 390 372 394 376 396 369 398 368 398 365 395 363 395 357 399 355 400 352 398 354 394 353 393 347 395 345 396 341 393 334 390 331 390 328 387 325 386 316 382 315 384 312 379 312 378 311 379 305 Z" fill="rgb(32,89,189)" stroke="none" /><path d="M 152 218 154 232 170 231 181 253 239 253 270 287 254 287 234 265 156 265 145 254 127 263 132 282 146 284 157 273 228 273 254 304 243 303 224 281 209 281 220 306 261 336 246 350 283 407 295 410 290 402 300 395 336 398 284 267 258 235 247 229 181 229 Z" fill="rgb(32,89,189)" stroke="none" /><path d="M 73 210 62 227 52 260 47 294 48 320 53 344 65 372 82 396 88 398 90 404 105 417 81 387 68 351 68 331 73 313 61 294 60 257 Z" fill="rgb(32,89,189)" stroke="none" /><path d="M 136 73 136 87 139 90 142 97 150 108 158 108 159 109 161 108 162 109 165 107 169 107 170 106 172 106 175 108 176 107 178 107 180 105 180 104 178 103 176 103 166 98 164 98 159 94 153 91 144 82 139 74 137 72 Z" fill="rgb(32,89,189)" stroke="none" /><path d="M 210 75 234 77 288 98 305 109 322 126 325 127 315 110 302 95 275 78 250 68 230 64 223 64 Z" fill="rgb(32,89,189)" stroke="none" /><path d="M 246 374 260 391 281 422 313 422 322 433 328 436 340 435 348 429 351 421 351 414 348 407 343 402 329 399 321 403 314 413 286 413 255 367 Z" fill="rgb(245,250,252)" stroke="none" /><path d="M 582 348 580 347 578 349 576 349 567 341 558 340 549 344 544 349 541 356 539 357 534 363 532 364 525 364 542 365 546 373 551 377 556 379 568 378 570 376 568 369 571 367 573 367 575 365 579 358 Z" fill="rgb(245,250,252)" stroke="none" /><path d="M 777 312 699 410 551 510 404 569 287 594 200 598 195 612 262 617 368 604 473 574 566 533 638 490 709 429 753 371 Z" fill="rgb(245,250,252)" stroke="none" /><path d="M 373 269 363 281 365 293 371 300 382 303 404 355 400 367 406 377 408 376 411 369 414 367 426 392 393 303 399 290 398 279 389 269 Z" fill="rgb(245,250,252)" stroke="none" /><path d="M 646 268 639 268 638 267 636 268 604 268 601 271 595 283 589 300 598 300 605 286 607 279 609 277 647 277 647 276 645 275 646 273 Z" fill="rgb(245,250,252)" stroke="none" /><path d="M 58 234 35 301 37 362 53 399 93 441 162 477 250 498 353 501 432 487 323 493 259 486 180 464 122 433 78 393 51 343 46 286 Z" fill="rgb(245,250,252)" stroke="none" /><path d="M 151 255 157 264 234 264 255 286 267 286 239 255 181 255 169 233 163 234 159 245 Z" fill="rgb(245,250,252)" stroke="none" /><path d="M 776 322 767 348 750 379 696 444 716 449 749 401 767 351 770 351 772 363 764 413 736 493 757 450 771 400 776 363 Z" fill="rgb(197,220,62)" stroke="none" /><path d="M 692 216 673 222 626 227 563 251 547 262 540 258 530 263 512 297 534 276 543 281 544 287 505 327 491 350 496 354 491 355 540 355 555 339 566 339 578 347 595 308 587 299 599 271 604 266 644 265 662 246 659 239 672 238 Z" fill="rgb(197,220,62)" stroke="none" /><path d="M 774 195 776 258 770 269 738 203 751 246 750 275 739 308 713 347 682 378 608 428 610 434 654 404 646 418 671 399 690 394 606 461 617 470 708 400 770 322 787 269 786 231 Z" fill="rgb(197,220,62)" stroke="none" /><path d="M 697 146 645 138 595 139 564 144 514 158 469 176 462 175 414 211 455 201 481 200 498 204 519 219 529 199 560 174 567 172 591 180 629 170 678 169 Z" fill="rgb(197,220,62)" stroke="none" /><path d="M 527 28 519 24 517 24 514 22 512 22 509 20 507 20 503 18 502 19 499 19 495 21 491 21 490 22 487 22 486 23 475 25 468 29 468 35 469 36 469 38 472 40 474 44 477 42 479 42 480 41 482 41 483 40 485 40 486 39 488 39 501 34 509 33 510 32 518 31 519 30 523 30 524 29 527 29 Z" fill="rgb(197,220,62)" stroke="none" /><path d="M 228 637 282 666 349 686 336 691 342 694 438 699 497 692 477 688 485 683 481 680 430 685 468 690 463 695 364 694 365 685 389 684 309 670 267 654 245 640 Z" fill="rgb(42,138,207)" stroke="none" /><path d="M 85 566 85 567 96 577 108 585 113 587 115 589 137 599 139 598 143 598 143 596 142 595 143 592 142 591 136 590 131 586 123 584 120 582 113 580 108 577 106 577 100 574 98 572 93 570 88 566 Z" fill="rgb(42,138,207)" stroke="none" /><path d="M 267 501 273 501 274 502 273 507 276 510 274 512 275 513 299 514 300 515 342 515 343 514 360 513 353 513 349 509 349 504 347 503 295 503 294 502 Z" fill="rgb(42,138,207)" stroke="none" /><path d="M 405 318 402 322 419 366 430 403 439 423 438 414 445 376 453 354 455 353 460 357 458 342 454 347 453 346 454 328 441 324 437 319 430 315 423 320 Z" fill="rgb(42,138,207)" stroke="none" /><path d="M 198 306 197 312 211 369 212 370 215 367 222 354 224 353 236 370 239 372 241 370 240 367 217 333 214 331 Z" fill="rgb(42,138,207)" stroke="none" /><path d="M 359 299 332 364 334 361 338 363 343 361 343 365 350 370 349 373 360 375 372 395 379 399 380 403 377 405 369 405 367 403 363 405 353 403 349 407 354 412 354 416 356 411 359 412 361 410 362 414 368 417 380 413 392 380 379 343 Z" fill="rgb(42,138,207)" stroke="none" /><path d="M 119 225 119 232 123 233 123 236 131 242 128 243 135 245 145 242 153 232 152 217 157 217 181 228 247 228 258 234 268 244 281 263 268 228 259 220 250 217 148 217 142 212 133 211 126 214 Z" fill="rgb(42,138,207)" stroke="none" /><path d="M 75 209 62 250 61 288 65 301 74 313 69 331 71 360 82 387 90 396 79 371 76 348 80 330 89 313 100 300 84 287 72 265 70 233 77 210 Z" fill="rgb(42,138,207)" stroke="none" /><path d="M 225 63 261 71 279 79 302 94 316 110 329 131 342 168 349 140 361 110 348 89 342 64 314 46 300 25 292 24 263 38 Z" fill="rgb(42,138,207)" stroke="none" /><path d="M 460 478 503 469 516 481 579 454 580 474 545 492 555 506 613 473 606 460 689 394 646 419 654 405 610 435 607 429 537 457 566 380 552 386 527 367 482 366 476 384 498 385 514 377 523 393 512 402 499 393 473 394 Z" fill="rgb(111,176,45)" stroke="none" /><path d="M 769 351 750 401 721 445 715 450 698 444 658 476 672 480 674 484 677 478 683 482 706 464 719 471 720 479 724 482 721 495 726 505 713 527 718 525 737 495 735 492 755 440 768 388 771 363 Z" fill="rgb(111,176,45)" stroke="none" /><path d="M 535 276 515 298 510 299 495 331 486 356 502 356 496 356 495 352 490 350 499 334 508 322 543 287 544 285 542 281 Z" fill="rgb(111,176,45)" stroke="none" /><path d="M 589 180 567 173 554 178 530 199 519 220 516 220 504 208 481 201 449 203 411 214 468 216 489 222 517 237 522 218 522 227 527 219 545 204 Z" fill="rgb(111,176,45)" stroke="none" /><path d="M 469 27 447 34 433 41 415 52 405 60 396 69 397 80 401 87 402 86 406 87 438 63 471 46 473 43 468 38 467 35 467 29 Z" fill="rgb(111,176,45)" stroke="none" /><path d="M 363 687 366 689 363 692 364 693 392 696 436 696 437 695 463 694 469 692 456 688 448 688 441 686 419 687 418 686 368 685 Z" fill="rgb(69,194,209)" stroke="none" /><path d="M 137 589 142 590 144 592 143 594 144 598 140 599 141 600 158 606 162 605 163 607 167 606 168 608 171 607 172 609 176 608 177 610 186 609 189 612 196 611 201 605 200 601 203 599 206 599 201 599 200 597 188 597 187 596 179 596 178 595 176 596 174 595 165 595 164 594 154 593 153 592 149 592 Z" fill="rgb(69,194,209)" stroke="none" /><path d="M 415 503 415 501 411 499 412 497 411 494 397 496 396 497 383 498 382 499 375 499 374 500 354 501 353 502 332 502 347 502 350 504 350 509 353 512 370 512 371 511 393 509 394 508 413 505 Z" fill="rgb(69,194,209)" stroke="none" /><path d="M 195 295 194 299 196 305 198 305 200 307 204 315 215 331 218 333 242 369 247 366 247 363 236 346 241 343 247 342 253 338 Z" fill="rgb(69,194,209)" stroke="none" /><path d="M 399 221 385 232 372 268 386 267 397 275 400 290 393 301 401 320 403 318 423 319 430 314 442 324 455 328 454 346 457 341 459 342 463 362 480 315 448 235 439 224 430 220 Z" fill="rgb(69,194,209)" stroke="none" /><path d="M 441 4 420 0 387 0 333 10 297 23 304 28 314 45 343 64 349 89 361 107 355 127 368 101 390 72 414 51 440 36 435 16 438 14 437 7 Z" fill="rgb(69,194,209)" stroke="none" /><path d="M 727 44 671 33 603 32 551 41 505 58 448 93 404 134 368 184 346 232 380 183 418 145 493 97 528 117 585 107 632 107 734 133 685 77 Z" fill="rgb(180,60,168)" stroke="none" /><path d="M 268 692 389 706 551 699 575 692 506 682 562 689 566 693 445 705 288 695 288 689 328 682 Z" fill="rgb(27,64,94)" stroke="none" /><path d="M 511 587 517 586 534 608 517 620 539 617 550 627 547 635 530 642 535 641 543 647 540 640 557 635 565 644 543 659 575 647 610 627 613 632 665 591 661 589 625 617 591 637 586 633 618 600 581 578 575 578 570 567 548 568 Z" fill="rgb(27,64,94)" stroke="none" /><path d="M 467 545 454 529 443 523 441 520 442 512 439 508 395 515 387 512 345 515 351 520 400 514 401 520 397 523 362 532 371 531 378 537 376 540 370 541 383 541 385 549 400 563 398 567 401 568 Z" fill="rgb(27,64,94)" stroke="none" /><path d="M 658 495 653 495 648 498 641 498 640 499 637 499 629 506 627 512 622 516 620 523 618 525 618 529 617 530 617 534 619 538 623 542 632 541 644 532 650 523 651 516 662 504 662 502 662 503 660 504 657 500 657 497 659 496 Z" fill="rgb(27,64,94)" stroke="none" /><path d="M 455 354 453 356 452 363 446 376 441 400 440 413 439 414 439 421 440 422 439 426 443 436 445 437 447 436 452 404 458 380 460 376 457 373 456 369 458 366 460 367 461 366 461 359 457 357 Z" fill="rgb(27,64,94)" stroke="none" /><path d="M 707 465 681 483 678 488 672 481 656 478 653 480 652 489 654 484 657 485 659 490 654 491 661 494 666 509 658 524 659 536 649 561 641 559 640 561 647 564 642 577 646 584 654 590 673 575 681 573 721 523 714 528 712 526 725 505 720 491 723 482 719 479 719 472 711 470 Z" fill="rgb(74,131,58)" stroke="none" /><path d="M 580 457 575 455 550 466 536 476 519 481 509 481 503 470 492 471 412 494 412 499 416 501 415 505 429 502 440 504 505 488 515 502 493 512 492 515 497 521 512 527 552 507 544 492 579 474 575 462 Z" fill="rgb(74,131,58)" stroke="none" /><path d="M 397 66 383 81 365 108 355 130 354 135 355 139 352 141 349 151 350 156 376 119 392 101 405 89 397 83 396 80 397 78 395 73 395 69 Z" fill="rgb(74,131,58)" stroke="none" /><path d="M 515 501 508 497 507 490 502 489 440 505 429 503 388 510 388 513 395 514 439 507 443 512 441 515 444 523 448 523 454 528 466 544 471 544 507 529 507 526 502 522 497 522 491 513 Z" fill="rgb(40,77,54)" stroke="none" /><path d="M 652 481 587 523 525 554 536 562 542 558 532 570 546 561 551 567 570 566 575 577 579 573 578 578 619 600 587 633 591 636 680 576 673 576 655 591 641 577 646 564 639 559 648 561 655 545 657 524 665 509 662 499 662 506 642 535 623 543 616 534 621 516 635 499 660 495 651 490 Z" fill="rgb(40,77,54)" stroke="none" /><path d="M 695 271 692 262 688 258 679 256 671 259 667 264 666 267 651 267 648 268 646 275 666 277 668 281 670 283 672 283 676 279 672 274 672 269 676 264 682 263 688 269 688 273 683 279 685 282 685 285 686 285 693 279 695 274 Z" fill="rgb(223,240,156)" stroke="none" /><path d="M 530 262 537 258 547 261 563 250 626 226 673 221 687 216 568 217 552 226 Z" fill="rgb(223,240,156)" stroke="none" /><path d="M 731 191 744 222 743 264 734 296 715 329 677 371 647 395 596 428 545 453 596 433 643 407 694 366 725 330 741 301 750 269 748 235 Z" fill="rgb(223,240,156)" stroke="none" /><path d="M 670 139 629 133 574 135 513 150 466 173 469 175 514 157 574 141 610 137 Z" fill="rgb(223,240,156)" stroke="none" /><path d="M 437 3 441 3 442 4 441 6 438 7 439 14 437 18 441 36 464 27 501 18 501 17 471 8 467 8 466 7 452 5 451 4 Z" fill="rgb(223,240,156)" stroke="none" /></svg>