<?xml version="1.0" encoding="UTF-8"?>
<svg id="Ebene_2" data-name="Ebene 2" xmlns="http://www.w3.org/2000/svg" xmlns:xlink="http://www.w3.org/1999/xlink" viewBox="0 0 781.41 419.8">
  <defs>
    <style>
      .cls-1 {
        fill: #31b2df;
      }

      .cls-2 {
        fill: #84b851;
      }

      .cls-3 {
        fill: #2074ac;
      }

      .cls-4 {
        fill: #d4e2ad;
      }

      .cls-5 {
        fill: #279bce;
      }

      .cls-6 {
        fill: url(#Unbenannter_Verlauf_44);
      }

      .cls-7 {
        fill: #fcfcfc;
      }

      .cls-8 {
        fill: #1d6da5;
      }

      .cls-9 {
        fill: #a9aecb;
      }

      .cls-10 {
        fill: #21579c;
      }

      .cls-11 {
        fill: url(#Unbenannter_Verlauf_36);
      }

      .cls-12 {
        fill: #1f5ea3;
      }

      .cls-13 {
        fill: url(#Unbenannter_Verlauf_42);
      }

      .cls-14 {
        fill: #7b82b1;
      }

      .cls-15 {
        fill: #2b4e9c;
      }

      .cls-16 {
        fill: #207db8;
      }

      .cls-17 {
        fill: #2da9d8;
      }

      .cls-18 {
        fill: #1d5894;
      }

      .cls-19 {
        fill: #88b749;
      }

      .cls-20 {
        fill: #1c538f;
      }

      .cls-21 {
        fill: #fafafb;
      }

      .cls-22 {
        fill: #1c609c;
      }

      .cls-23 {
        fill: #97a7cc;
      }

      .cls-24 {
        fill: #fbfbfb;
      }

      .cls-25 {
        fill: url(#Unbenannter_Verlauf_43);
      }

      .cls-26 {
        fill: #fdfefd;
      }

      .cls-27 {
        fill: #1e74b1;
      }

      .cls-28 {
        fill: #1d69a1;
      }

      .cls-29 {
        fill: #1f69a9;
      }

      .cls-30 {
        fill: #fefefd;
      }

      .cls-31 {
        fill: #ebf2d9;
      }

      .cls-32 {
        fill: #258ec5;
      }

      .cls-33 {
        fill: #2591c8;
      }

      .cls-34 {
        fill: #659e3a;
      }

      .cls-35 {
        fill: #283784;
      }

      .cls-36 {
        fill: #8eba4f;
      }

      .cls-37 {
        fill: #2ba3d4;
      }

      .cls-38 {
        fill: #1c588f;
      }

      .cls-39 {
        fill: #1f7ab3;
      }

      .cls-40 {
        fill: #89ba4b;
      }

      .cls-41 {
        fill: url(#Unbenannter_Verlauf_38);
      }

      .cls-42 {
        fill: #2d51a0;
      }

      .cls-43 {
        fill: #fbfbfc;
      }

      .cls-44 {
        fill: #1b5f9b;
      }

      .cls-45 {
        fill: #1e74af;
      }

      .cls-46 {
        fill: #fdfdfd;
      }

      .cls-47 {
        fill: #fbfcf6;
      }

      .cls-48 {
        fill: url(#Unbenannter_Verlauf_41);
      }

      .cls-49 {
        fill: #5d9938;
      }

      .cls-50 {
        fill: url(#Unbenannter_Verlauf_37);
      }
    </style>
    <linearGradient id="Unbenannter_Verlauf_38" data-name="Unbenannter Verlauf 38" x1="639.29" y1="930.27" x2="632.47" y2="1113.15" gradientTransform="translate(-263 -885)" gradientUnits="userSpaceOnUse">
      <stop offset="0" stop-color="#2ab1e0"/>
      <stop offset="1" stop-color="#2289c0"/>
    </linearGradient>
    <linearGradient id="Unbenannter_Verlauf_36" data-name="Unbenannter Verlauf 36" x1="363.74" y1="908.4" x2="449.34" y2="1316.52" gradientTransform="translate(-263 -885)" gradientUnits="userSpaceOnUse">
      <stop offset="0" stop-color="#2e4b9d"/>
      <stop offset="1" stop-color="#27347b"/>
    </linearGradient>
    <linearGradient id="Unbenannter_Verlauf_42" data-name="Unbenannter Verlauf 42" x1="952.36" y1="898.28" x2="756.52" y2="1261.89" gradientTransform="translate(-263 -885)" gradientUnits="userSpaceOnUse">
      <stop offset="0" stop-color="#7a2c72"/>
      <stop offset=".56" stop-color="#3a1543"/>
      <stop offset=".88" stop-color="#3b1349"/>
      <stop offset=".93" stop-color="#2e0939"/>
      <stop offset="1" stop-color="#3a0e44"/>
    </linearGradient>
    <linearGradient id="Unbenannter_Verlauf_43" data-name="Unbenannter Verlauf 43" x1="949.04" y1="849.74" x2="813.69" y2="1119.71" gradientTransform="translate(-263 -885)" gradientUnits="userSpaceOnUse">
      <stop offset="0" stop-color="#a74089"/>
      <stop offset=".73" stop-color="#6c2469"/>
      <stop offset=".94" stop-color="#712772"/>
      <stop offset="1" stop-color="#622063"/>
    </linearGradient>
    <linearGradient id="Unbenannter_Verlauf_37" data-name="Unbenannter Verlauf 37" x1="802.93" y1="1127.7" x2="725.89" y2="1304.65" gradientTransform="translate(-263 -885)" gradientUnits="userSpaceOnUse">
      <stop offset="0" stop-color="#89ba48"/>
      <stop offset="1" stop-color="#629c3e"/>
    </linearGradient>
    <linearGradient id="Unbenannter_Verlauf_41" data-name="Unbenannter Verlauf 41" x1="973.19" y1="982.79" x2="796.86" y2="1171.13" gradientTransform="translate(-263 -885)" gradientUnits="userSpaceOnUse">
      <stop offset="0" stop-color="#b2d05b"/>
      <stop offset="1" stop-color="#88b84c"/>
    </linearGradient>
    <linearGradient id="Unbenannter_Verlauf_44" data-name="Unbenannter Verlauf 44" x1="944.55" y1="939.79" x2="836.52" y2="1076.2" gradientTransform="translate(-263 -885)" gradientUnits="userSpaceOnUse">
      <stop offset="0" stop-color="#99bb4e"/>
      <stop offset="1" stop-color="#6aa33c"/>
    </linearGradient>
  </defs>
  <g id="Ebene_1-2" data-name="Ebene 1">
    <g>
      <g>
        <g>
          <path class="cls-39" d="M323.59,242.71l-.22,3.15-13.45-3.21-9.82-2.11c-2.03-.43-6.14-.48-8.34-.36l-9.01.47c-3.4.18-7.13-.63-10.41-1.78l-12.13-4.24-2.21-7.26-1.35-4.56c1.23-4.01,2.62-8.02,4.08-12l3.02-8.26c1.34-3.68,3.12-7.25,3.85-10.77,1-1.34,1.97-3.3,2.69-5.23l3.21-8.65,2.06-5.44,5.19-13.59c1.29-3.37,3.01-6.86,4.71-10.02,2.31,4.27,4.53,8.69,6.5,13.68l31.65,80.18Z"/>
          <path class="cls-29" d="M330.78,284.87c-1.8,4.42-3.65,11.72-6.55,18.35l-5.52,12.61c-.41-.39-1.16-1.12-.66-.63-5.82,3.44-2.18-1.34-9.3-.39-3.52.47-6.61.43-9.89.52l-18.98.53c-.84.02-2.74.35-2.82.95l-.47,3.2c-.18,1.2-.68,2.91-1.1,3.77,1.78-14.04-6.39-28.09-21.21-30.75-3.19-.57-7.78-.58-10.7-.17-.13-.1,1.45-.9,2.02-.97l5.73-.67-9.28-21.84c-.83-1.96-2.27-4.62-2.96-5.95.46-.97.86-1.84.96-2.22,1.13-1.62,2.66-4.09,3.21-6.01,1.14.66,2.6,2.5,4.03,4.12,2.82,1.15,7.69-.01,11.41-.26,7.06-.47,14.42.13,21.17,1.37,17.41,3.21,17.47,19.92,25.94,21.93,7.77,1.84,14.84,1.73,22.7,1.56.5-.22,2.03-1.44,2.08-.97l.21,1.91Z"/>
          <path class="cls-38" d="M296.65,146.72c4.29,6.05,10.99,9.03,19.75,8.55l32.66,78.02c2.11,5.04-6.62,18.57-7.44,24.6l-.03,1.14c-2.26,3.52-3.46,7.74-5.07,11.7-.34.09-1.25.42-1.37.1l-.62-1.67-10.95-26.45-31.65-80.18c-1.97-4.99-4.19-9.41-6.5-13.68.04-.78.04-2.22.27-2.91.91-2.73,3.18-7.93,4.75-11.18,1.62,5.25,3.61,8.34,6.19,11.98Z"/>
          <path class="cls-45" d="M323.59,242.71l10.95,26.45.62,1.67c.12.33,1.03,0,1.37-.1l-5.75,14.14-.21-1.91c-.05-.47-1.58.75-2.08.97-7.86.16-14.93.28-22.7-1.56-8.47-2.01-8.53-18.73-25.94-21.93-6.75-1.24-14.1-1.84-21.17-1.37-3.72.25-8.59,1.4-11.41.26-1.43-1.63-2.89-3.46-4.03-4.12.88-3.02,1.59-6.01,3.5-8.42.45.96,3.13,1.96,4.12,1.28l5.49-3.75c1.91-1.31,1.66-7.56-.39-8.56-1.78-.86-3.73-1.87-3.52-3.05,1.01-3.23,2.51-6.92,4.17-9.88l1.35,4.56,2.21,7.26,12.13,4.24c3.28,1.15,7.01,1.95,10.41,1.78l9.01-.47c2.21-.11,6.32-.07,8.34.36l9.82,2.11,13.45,3.21.22-3.15Z"/>
          <path class="cls-24" d="M364.53,233.83l5.78,15.91c-.59-.46-1.14-1.11-2.46-2.72l-4.97,3.26c-1.65,1.08-3.54,3.15-4.4,5.2-1.58,3.74-6.25,7.8-10.41,5.69l-6.43-3.27c.82-6.03,9.55-19.56,7.44-24.6l-32.66-78.02c-8.76.48-15.47-2.5-19.75-8.55,2.82-2.99,6.89-.74,8.35-5.37,4.16,3.88,10.42,4.44,15.2,1.36s6.86-9.01,5.04-14.4-7.06-8.86-12.72-8.42c3.79-2.14,7.51-4.98,8.99-9.05,6.85,2.04,12.14,8.04,13.99,13.93,5.42,17.24-7.57,22.07-5.32,27.42l34.35,81.62Z"/>
          <path class="cls-12" d="M318.71,315.82l-3.09,9.87-4.96,12.84c-2.45,6.34-5.09,12.65-7.11,19.13l-1.76,3.09-.26-2.25c-13.5,4.42-14.82-17.43-23.52-12.44l-3.64-7.47c-.62-1.28-1.84-2.92-2.68-3.82l3.81-11c.42-.86.92-2.57,1.1-3.77l.47-3.2c.09-.61,1.98-.93,2.82-.95l18.98-.53c3.28-.09,6.37-.05,9.89-.52,7.12-.96,3.48,3.83,9.3.39-.5-.49.25.24.66.63Z"/>
          <circle class="cls-33" cx="313.48" cy="132.27" r="12.42"/>
          <path class="cls-39" d="M246.75,246.77l3.74-10.97c.3-.87,1.42-2.32,1.97-3.11-.21,1.18,1.74,2.19,3.52,3.05,2.05,1,2.3,7.25.39,8.56l-5.49,3.75c-1,.68-3.67-.32-4.12-1.28Z"/>
          <path class="cls-10" d="M301.79,360.75l-6.6,18.63c-.22.62-1.48,2.1-1.67,2.28l-3.58-8.16-11.92-27.44c8.7-4.98,10.02,16.86,23.52,12.44l.26,2.25Z"/>
          <g>
            <path class="cls-41" d="M378.58,43.89c9.4,0,17.14,7.53,23.09,14.05l3.72,10.08c.79,2.13,1.62,4,2.62,5.45,2.21,6.22,4.69,12.42,7.57,18.32.4,2.23,1.01,5.3,2.21,7.32l2.74,4.59c1.83,6.21,4.33,12.44,7.38,18.65,1.16,2.35,1.83,4.7,2.84,7.23l11.47,28.85c-11.74,18.22-19.16,46.86-25.57,63.41l-3.07,7.93-14.85.26c-2.84.05-7.11,1.92-9.97,1.88l-19.33-.25c-1.58-.02-4.03,1.12-4.9,2.17l-34.35-81.62c-2.25-5.35,10.73-10.19,5.32-27.42-1.85-5.9-7.14-11.9-13.99-13.93-11.77-3.5-11.74,1.47-15.15-4.52-2.41-4.24-3-7.77-1.11-11.83,3.33-7.17,5.76-14.47,8.48-21.91l2.68-7.33,2.92-7.78c8.15-7.54,6.29-7.45,17.25-12.47l5-1.09,37-.03Z"/>
            <path class="cls-16" d="M413.58,229.77l-4.97,20.01-6.99,30.19c-1.52.32-4.05.62-6.3.59-1.9-3.41,5.26-3.58,4.44-5.06-1.47-2.65-1.17-1.23-8-5.84-.76-.51-2.93-2.24-3.72-1.79l-3.35,1.89c-1.98,1.12-3.7,2.35-4.14,4.14l-1.89-4.22c-.57-1.26-1.69-2.99-2.4-3.92-1.64-5.47-4.01-10.66-5.96-16.03l-5.78-15.91c.87-1.06,3.32-2.2,4.9-2.17l19.33.25c2.86.04,7.13-1.83,9.97-1.88l14.85-.26Z"/>
            <path class="cls-20" d="M417.53,289.77c-.76,4.55-2.79,31.02-3.1,36.93l-1.4,27.38-9.26-20.38-6.24-15.97c-.36-.92-1.03-2.85-.96-3.83.36-5.36,3.54-24.12,4.94-30.08,5.52.84,5.86,7.45,16.02,5.95Z"/>
            <path class="cls-8" d="M442.22,158.42l6.09,14.83-16.71,46.69c-1.27.57-3.81,1.63-5.18,1.66l-9.77.23c6.41-16.55,13.83-45.19,25.57-63.41Z"/>
            <path class="cls-18" d="M423.84,251.78l-6.32,37.99c-10.16,1.5-10.5-5.11-16.02-5.95.02-.98-.1-2.91.12-3.85l6.99-30.19,8.38,2.76c1,.33,3.65.34,4.14-.49l2.02-3.43.69,3.17Z"/>
            <path class="cls-22" d="M431.6,219.94l-.45,2.73-7.31,29.11-.69-3.17-2.02,3.43c-.49.83-3.13.82-4.14.49l-8.38-2.76,4.97-20.01,3.07-7.93,9.77-.23c1.37-.03,3.91-1.09,5.18-1.66Z"/>
            <path class="cls-24" d="M378.58,43.89l-37,.03,1.11-1.15h34.73c.3.28,1.16,1.12,1.16,1.12Z"/>
            <path class="cls-27" d="M401.62,279.97c-.22.94-.1,2.87-.12,3.85-1.4,5.97-4.58,24.73-4.94,30.08-3.3-7.46-5.98-15.35-9.11-23.03-.83-1.88,5.59-4.03,3.6-9.28-2.22-2.01-5.34.28-6.56,2.03l-3.94-9.71c.45-1.79,2.16-3.02,4.14-4.14l3.35-1.89c.79-.45,2.96,1.28,3.72,1.79,6.83,4.62,6.53,3.19,8,5.84.82,1.48-6.34,1.65-4.44,5.06,2.25.03,4.78-.27,6.3-.59Z"/>
            <path class="cls-16" d="M387.46,290.87l-2.95-7.25c1.22-1.75,4.34-4.03,6.56-2.03,1.98,5.25-4.43,7.4-3.6,9.28Z"/>
          </g>
        </g>
        <g>
          <path class="cls-11" d="M39.84,43.98l91.75.04c4.3,0,11.98,3.03,15.02,5.64,3.58,3.07,7.67,8.09,10.01,12.18,2.48,4.32,2.54,10.82,6.07,14.8,3.61,11.28,8.54,21.87,13.31,33.47l39.02,94.92,2.72,6.53c3.11,7.48,5.78,14.67,9.12,21.47,1.61,3.48,2.19,8.76,4.05,12.22l3.53,6.61c.51.96,2.02,9.46,5.61,9.33-.1.38-.5,1.26-.96,2.22.7,1.34,2.13,4,2.96,5.95l9.28,21.84-5.73.67c-.57.07-2.15.87-2.02.97-8.03,1.12-18.56,10-20,15.53-.74,2.83-2.19,3.57-4.9,3.57l-37.02.03-31.19-45.74-15.02.28,39.81,59.21,46.96.16c2.68,8.49,7.89,15.06,15.71,18.45,12.61,5.47,25.3.34,33.74-9.56.84.89,2.06,2.54,2.68,3.82l3.64,7.47,11.92,27.44,3.58,8.16c-1.26,5.28-5.63,18.41-8.73,23.5-4.9,8.03-14.46,14.26-24.37,14.32l-54.88.32c-11.54.07-25.48-7.5-29.89-18.93l-11.99-31.09.17-2h28.76c1.95,3.26,5.4,5.7,8.71,5.97,4.26.35,8.49-.77,11.09-4.34,3.97-5.46,1.36-8.85.17-10.69-.97-1.5-2.45-4.71-4.19-5.45-5.28-2.25-10.4-.16-13.85,3.27l-36.13-.11-38.33-97.24,14.35-10.68c2.98-2.21,3.83-6.67,1.66-10.04l-12.54-19.47,18.29-6.35c2.17-.75,4.6-4.42,4.71-6.47.12-2.36-1.54-5.11-3.75-6.68l-52.08-36.84c-1.08-.76-3.49-2.79-3.97-4l-15.75-40.05,20.25-.39,30.49,35.1c5.04.03,11.11.79,14.82-.93l-37.95-44.53c-.46-.54-1.86-1.08-2.91-1.08h-60.23c-.55,0-1.7.72-1.86,1.23-1.65,5.43-10.38,13.22-17.49,11.76-7.88-1.62-14.44-5.94-15.89-14.89-1.14-7.07,2.24-14.15,8.08-17.82s13.01-3.77,18.99-.48c4.49,4.08,5.46,8.08,8.24,10.18,23.59,2.21,48.11.49,72.11,1.03,6.64,6.71,18.7,20.71,25.1,28,5.86.91,11.52,1.34,15.56-.55-8.81-10.04-25.5-29.25-34.67-38.44-.49-.49-2-1.03-2.9-1.03l-53.19-.02c-2.92-5.26-7.29-15.88-9.83-21.97.26.04-.87-2.1-1.4-2.09l-13.4.38c-3.35,7.64-10.07,12.02-17.43,11.18-7.53-.86-14.23-6.32-14.92-14.45-.4-4.76.82-10.74,4.09-14.03,5.03-5.05,12.81-6.55,20.29-3.65,3.38,1.31,6.06,6.79,8.83,9.64,1.04,1.07,5.36-.39,5.68-1.84.29-1.32.42-3.51.38-4.95ZM25.37,56.59c0-4.57-3.71-8.28-8.28-8.28s-8.28,3.71-8.28,8.28,3.71,8.28,8.28,8.28,8.28-3.71,8.28-8.28ZM97.29,62.98c-2.25-1.77-7.25-1.83-9.94-.33-2.06,1.15-4.32,4.25-5.02,7.43-.6,2.72,1.97,6.76,4.31,8.58,2.92,2.27,7.03.92,9.29-.9,4.78-3.87,2.38-13.98,1.37-14.78ZM26.41,101.91c0-4.85-3.93-8.79-8.79-8.79s-8.79,3.93-8.79,8.79,3.93,8.79,8.79,8.79,8.79-3.93,8.79-8.79Z"/>
          <path class="cls-46" d="M47.71,63.78c2.54,6.09,6.9,16.72,9.83,21.97.24.42,1.42,1.02,2.36,1.02l53.72.03c9.17,9.18,25.86,28.39,34.67,38.44-4.04,1.89-9.69,1.46-15.56.55-6.4-7.29-18.46-21.28-25.1-28-.49-.5-1.98-1.01-2.96-1.01l-69.15-.02c-2.78-2.1-3.75-6.1-8.24-10.18-.42-.26-.42-2.46.11-3.02l8.71-9.19,2.06-5.09,2.93-6.35c1.38-.48,5.05.15,6.61.85Z"/>
          <path class="cls-44" d="M88.36,202.61l20.44,30.04,10.7,16.14-6.16,4.07-18.11-26.83-15.04,23.1c-.46.71-2.49,2.39-2.92,1.73-.32-.49-1.14-1.9-1.29-2.59l-8.57-38.49c.15-6.98,8.96-8.6,14.53-10.05l2.48,3.91c.57.89,3.2-.57,3.93-1.04Z"/>
          <path class="cls-5" d="M115.37,190.94l2.46,1.36,2.46,2.88c.49.57,1.88,2.44,1.34,2.96l-2.41,2.35-6.01,5.85-3.88,4.26c-.58.64-2.25,2.77-1.6,3.33l1.9,1.64c4.27,4.4,7.39,9.95,10.99,14.94-3.98.47-7.91,1.18-11.82,2.11l-20.44-30.04c-1.32-1.94-2.62-4.63-3.67-6.66,17.11-7.43,6.87,2.68,26.04-3.87,1.65-.56,3.28-.92,4.63-1.13Z"/>
          <path class="cls-17" d="M79.4,165.7l33.57,22.65c.84.56,2,2.06,2.4,2.6-1.36.21-2.98.57-4.63,1.13-19.16,6.55-8.93-3.56-26.04,3.87-3.27-3.64-12.22-16.74-13.97-21.2l5.58-6.4c.86-.99,2.15-2.05,3.1-2.65Z"/>
          <path class="cls-28" d="M67.39,171.74l3.33,3.01c1.75,4.46,10.7,17.56,13.97,21.2,1.04,2.03,2.35,4.72,3.67,6.66-.73.47-3.36,1.94-3.93,1.04l-2.48-3.91c-5.57,1.44-14.38,3.07-14.53,10.05l-8.03-35.05.85-2.03c.28-.67,2.06-.52,2.97-.6l4.17-.36Z"/>
          <path class="cls-37" d="M109.63,215.59l-1.9-1.64c-.66-.57,1.01-2.7,1.6-3.33l3.88-4.26,6.01-5.85,2.41-2.35c.54-.53-.85-2.39-1.34-2.96l-2.46-2.88c.79.44,2.61,1.14,3.56,1.79l13.4,9.22c.48.33,1.28,1.53,1.47,1.96s-1.3,1.61-1.83,1.76l-22.22,6.43c-.86.25-2.31,1.56-2.57,2.12Z"/>
          <path class="cls-1" d="M79.4,165.7c-.96.59-2.24,1.66-3.1,2.65l-5.58,6.4-3.33-3.01c-.72-1.79-1.78-3.93-2.98-5.76l-9.29-14.13-.64,3.02c-.48-1.95-2.42-6.06.7-6.78,9.17,4.64,16.26,12.24,24.22,17.61Z"/>
          <path class="cls-32" d="M120.62,230.53l8.61,11.93-9.72,6.32-10.7-16.14c3.91-.94,7.84-1.64,11.82-2.11Z"/>
          <path class="cls-9" d="M212.55,358.72c.33,3.22.17,6.86-1.99,9.51-1.81,2.23-5.55,3.84-9.01,3.74-3.1-.09-5.93-1.99-6.98-4.29,6.01.76,8.78,2.37,12.02-.24,3.07-2.47,2.57-8.89.43-10.66-3.22-2.66-6.94-.22-12.51-.24,3.45-3.42,8.57-5.51,13.85-3.27,1.74.74,3.22,3.95,4.19,5.45Z"/>
          <path class="cls-3" d="M67.39,171.74l-4.17.36c-.92.08-2.69-.07-2.97.6l-.85,2.03-4.92-19.86.64-3.02,9.29,14.13c1.21,1.83,2.27,3.97,2.98,5.76Z"/>
          <path class="cls-15" d="M98.59,107.85l-65,.15c.16-.51,1.31-1.23,1.86-1.23h60.23c1.04,0,2.44.54,2.91,1.08Z"/>
          <path class="cls-14" d="M192.58,367.78h1c.26,0,.74-.14,1-.1,1.05,2.3,3.87,4.2,6.98,4.29,3.46.1,7.2-1.51,9.01-3.74,2.15-2.65,2.32-6.29,1.99-9.51,1.19,1.84,3.8,5.23-.17,10.69-2.6,3.57-6.83,4.69-11.09,4.34-3.31-.27-6.76-2.71-8.71-5.97Z"/>
          <path class="cls-9" d="M193.58,367.78h-29.76s-.17,2-.17,2l-1.3-1.51c-.25-.29,1.1-1.52,1.59-1.52l28.01.03c.36,0,2.12,1.2,1.63.99Z"/>
          <path class="cls-46" d="M243.58,292.85c2.92-.41,7.51-.4,10.7.17,14.82,2.67,22.99,16.72,21.21,30.75l-3.81,11c-8.45,9.9-21.13,15.03-33.74,9.56-7.83-3.39-13.04-9.96-15.71-18.45l-46.96-.16-39.81-59.21,15.02-.28,31.19,45.74,37.02-.03c2.72,0,4.16-.74,4.9-3.57,1.45-5.52,11.97-14.41,20-15.53ZM262.96,319.58c0-7.94-6.43-14.37-14.37-14.37s-14.37,6.43-14.37,14.37,6.43,14.37,14.37,14.37,14.37-6.43,14.37-14.37Z"/>
          <circle class="cls-43" cx="17.62" cy="101.91" r="8.79"/>
          <circle class="cls-7" cx="17.09" cy="56.59" r="8.28"/>
          <path class="cls-23" d="M97.29,62.98c1.01.8,3.41,10.91-1.37,14.78-2.25,1.82-6.36,3.18-9.29.9-2.34-1.82-4.91-5.86-4.31-8.58.7-3.18,2.97-6.29,5.02-7.43,2.69-1.5,7.69-1.44,9.94.33ZM94.33,72.85c1.63-1.58,1.55-5.32.36-6.74-1.07-1.28-4.53-1.71-6.18-.86-1.29.66-2.2,3.45-2.05,5.67.08,1.2,1.83,3.48,2.94,3.85s3.54-.57,4.93-1.93Z"/>
          <path class="cls-15" d="M107.64,97.79c-24-.54-48.51,1.17-72.11-1.03l69.15.02c.99,0,2.47.51,2.96,1.01Z"/>
          <path class="cls-42" d="M113.63,86.8l-53.72-.03c-.95,0-2.13-.59-2.36-1.02l53.19.02c.89,0,2.41.54,2.9,1.03Z"/>
          <circle class="cls-35" cx="248.59" cy="319.58" r="14.37"/>
          <path class="cls-21" d="M94.33,72.85c-1.39,1.36-3.82,2.3-4.93,1.93s-2.87-2.65-2.94-3.85c-.14-2.22.77-5.01,2.05-5.67,1.65-.85,5.11-.42,6.18.86,1.2,1.42,1.27,5.16-.36,6.74Z"/>
        </g>
      </g>
      <g>
        <path class="cls-13" d="M742.67,38.63c1.03,2.63,3.77,4.96,6.42,5.44-.36,1.18-.12,4.09.79,4.99l4.65,4.54c.63,1,1.46,2.28,2.16,3.19,5.46,7.11,11.03,14.2,16.91,20.91l1.07,1.22,5.64,8.95-15.73-5.17c-20.94-6.87-42.36-11.95-65.08-13.64-71.01-5.26-137.7,24.22-185.71,75.87-31.96,34.37-51.37,74.4-65.36,118.74-3,9.53-8.92,35.77-10.78,46.3-4.63,26.08-7.41,51.88-8.24,77.8-.16,5.03-1.12,10.77-.66,15.96l-1.15.05-.37-9.39c-.5-12.72-.95-25.26-.56-37.61.76-24.37,3.08-48.4,6.68-73.08,3.02-20.72,8.05-40.14,13.27-59.75,1.06-.39,2.25-1.81,2.85-3.19l8.6-19.68c7.11-16.28,15.86-31.36,25.64-46.28,9.01-13.75,18.87-25.91,29.55-38.42,12.74-14.91,27.32-27.1,42.51-39.37,4.78-3.86,9.22-7.57,14.61-10.49,10.98-5.96,21.54-12.17,33.3-16.54l18.49-6.88c2.98-1.11,5.96-2.73,9.01-3.6,18.88-5.41,37.78-6.86,57.4-6.95,18.29-.08,37.41.7,54.12,6.1Z"/>
        <path class="cls-25" d="M731.58.64l14.98,1.79,15.88,2.12c.45.06,2.23-1.68,2.55-1.32l1.74,1.96,12.99,2.42c.75.14,1.52,1.66,1.71,2.28-2.04,1.13-5.41,3.46-6.87,5.01l-.96,1.01c-1.19.71-2.36,1.77-3.21,2.87-.59.26-1.62.71-2.13,1.01-2.06,1.2-5.7,4.01-7.54,5.77-6.24,3.94-12.19,8.48-18.03,13.06-16.71-5.39-35.82-6.18-54.12-6.1-19.62.09-38.52,1.54-57.4,6.95-3.04.87-6.02,2.49-9.01,3.6l-18.49,6.88c-11.76,4.38-22.32,10.58-33.3,16.54-5.39,2.93-9.83,6.63-14.61,10.49-15.19,12.27-29.77,24.46-42.51,39.37-10.69,12.51-20.54,24.67-29.55,38.42-9.78,14.92-18.53,30-25.64,46.28l-8.6,19.68c-.6,1.38-1.79,2.8-2.85,3.19,5-18.78,11.76-37.2,19.15-55.08l1.2-2.4,11.8-23.62c1.31-2.62,6.79-12.17,8.09-14.08,2.38-3.48,4.73-6.97,6.7-10.7.89-1.69,2.61-3.58,3.97-5.4l19.71-26.29c1.12-1.49,2.61-2.67,3.94-4l17.17-17.09c1.18-1.18,3.07-2.43,4.27-3.44l13.1-11c7.1-5.96,15.2-10.78,22.92-15.94,3.1-2.08,7.16-3.57,10.06-6l1.08-.91c2.68-.98,5.52-1.59,8.43-3.46l5.61-3.61c1.28-.82,4.29-1.53,5.71-2.12l12.17-5.05,17.99-5.88c15.32-5.01,31.86-6.12,48.07-7.28,9.68-.69,19.61-.78,29.77-.3,4.69.22,9.93-.15,14.07.34Z"/>
        <g>
          <path class="cls-50" d="M560.68,249.61c3.14,0,1.82,6.93,11.7,12.87,2.95,1.77,5.65,3.43,9.84,3.77l8.65.69c.08.14.15,1.9-.03,2.44l-3.93,11.39-4.19,11.15c-1.53,4.08-3.26,8.21-4.67,12.67-.62,1.96-1.34,3.62-2.22,5.61-3.04,6.87-5.63,13.65-8.28,20.86-.31.85-.73,3.03-1.06,3.81l-2.06,4.82c-2.23,5.21-3.74,10.66-5.8,15.88l-2.98,7.58c-.73,1.85-1.54,3.66-2.19,5.55l-2.14,6.15-2.91,5.76c-3.79,7.53-5.31,15.24-9.24,22.86-4.64,8.98-15.34,15.88-25.83,15.95l-53.81.35c-5.8.04-13.1-1.71-16.78-5.62-.21-7.31-.38-14.01-.06-20.38,1.82-35.85,5.24-71.48,13.83-106.96l39.89.03c2.44,3.3,4.87,6.85,8.08,8.76,8.26,4.91,17.95,1.13,22.15-6.51s1.26-16.92-5.86-21.24c-7.59-4.6-17.13-2.68-22.21,5.07-.74,1.13-2.69,2.58-3.82,3l-35.69-.1,8.41-26.05,93.2-.17Z"/>
          <path class="cls-48" d="M712.5,111.76l-4.76,6.71c-3.7,2.67-5.88,7.29-8.91,10.51-5.29,5.62-10.24,10.98-15.78,17.7l36.65.09c.74,0,2.16-.25,2.73-.42.38-.11.1-1.2.27-1.56,1.23-2.61,4.3-7.31,6.84-9.21,2.14-1.61,7.12-3.92,9.71-3.87l8.33.15c4.57,1.06,8.86,3.48,12.13,6.93l1.94,2.05c2.39,5.5,3.88,11.11,2.86,17.03-1.31,4.21-3.4,7.72-6,12.25l-10.17,4.75c-4.87.54-9.74.04-14.52-1.15l-9.59-6.16-1.73-6c-.44-1.52-1.63-2.72-4.06-2.72l-81.41-.07c-.89,0-2.68.88-2.54,1.02-1.1,2.8-2.86,7.65-3.65,10.25-.06.19-.12.53-.15.74-2.21,3.65-3.67,7.88-5.03,12-.36,1.09-1.25,3.05-1.77,4.17-2.51,5.44-4.74,11.06-6.31,16.79l-2.88,6.94-5.24,13.08-1.45,3.78c-.38,1-1.85,2.8-2.83,3.56-.71.56-3.05-.57-3.45-1.39-1.96-4.01-9.46-9.18-14.94-9.15-8.21.05-14.96,1.98-20.01,8.62l-4.2,5.54-85.04.12c-.86,0-2.91-.76-3.38-1.05l.66-2.02c9.96-13.43,28.78-39.65,41.69-50.02l21.26-17.08c1.64-.69,4.02-1.76,5.89-2.88l38.09-22.9c17.16-10.31,35.42-15.08,54.8-19.46,16.02-3.62,31.12-7.62,47.68-8.14,7.39-.23,14.86-.67,22.25-.04l6.03.52ZM738.08,163.65c6.45,2.46,12.24.34,15.13-4.86,2.55-4.59,1.41-10.75-2.76-14.17-4.42-3.63-10.81-3.61-15.04.44-3.97,3.8-4.84,9.46-1.88,14.73.87,1.55,2.53,3.1,4.55,3.87ZM606.64,174.83l-.92,1.12-1.87.31c-1.23,4.37.02,8.68,3.84,10.2,4.52,1.8,9.15-.09,10.66-5.06,1.25-4.1-.49-8.13-3.6-9.58-4.1-1.91-7.73-1.07-10.25,2.72l2.15.29Z"/>
          <path class="cls-36" d="M596.65,247.88c0,.25-.04.68-.06.97-1.64,1.68-3.82,4.97-5.85,5.96-2.85,1.4-7.11,1.23-10.23,1.02l-3.52-2.62c-4.62-3.44-6.05-9.42-3.77-14.98,1.77-4.33,6.74-7.51,12.67-7.12,3.99.26,9.76,3.28,10.44,8.88.27,2.18.31,6.01.32,7.9Z"/>
          <path class="cls-30" d="M590.87,266.93l-8.65-.69c-4.19-.33-6.9-1.99-9.84-3.77,1.58-6.38,6.66-3.08,8.13-6.65,3.12.21,7.38.38,10.23-1.02l3.29,7c.39.83.62,3.07.03,3.73s-2.3,1.46-3.19,1.39Z"/>
          <path class="cls-30" d="M596.59,248.85c.02-.29.06-.72.06-.97,3.24-6.62-1.97-2.13,3.06-13.58l2.02-4.6c.4.81,2.74,1.94,3.45,1.39.97-.76,2.44-2.56,2.83-3.56l1.12-.43c.35-.13,1.63,1.59,1.56,1.96-2.42,12.81-5.05,7.8-9.12,18.74l-4.97,1.07Z"/>
          <path class="cls-24" d="M722.49,161.55c-8.88.58-12.21-1.54-12.95-1.55l-46.95-.22h-28.1c-.14-.14,1.65-1.02,2.54-1.02l81.41.07c2.43,0,3.62,1.19,4.06,2.72Z"/>
          <path class="cls-24" d="M609.44,223.75l5.24-13.08c1.43,3.63.98,7.62-.72,11.4l-4.52,1.68Z"/>
          <path class="cls-24" d="M601.73,229.7l-2.02,4.6c-5.03,11.45.18,6.96-3.06,13.58-.01-1.89-.06-5.72-.32-7.9-.68-5.6-6.46-8.62-10.44-8.88-5.93-.38-10.89,2.8-12.67,7.12-2.28,5.56-.84,11.54,3.77,14.98l3.52,2.62c-1.47,3.57-6.55.27-8.13,6.65-9.88-5.94-8.56-12.87-11.7-12.87l-1.16-.84h-67.93c-.48.11,1.11-.98,1.75-.98l60.97-.04c2.31,0,4.21-2.86,5.7-3.39,1.97-.7,4.55-7.39,1.35-7.4l-86.61-.22c-1.23,0-2.63-.99-2.16-.97h88.03c.51,0,1.69-.71,1.96-1.07l4.2-5.54c5.04-6.64,11.79-8.58,20.01-8.62,5.48-.03,12.99,5.14,14.94,9.15Z"/>
          <path class="cls-40" d="M491.58,248.78h67.93s1.16.83,1.16.83l-93.2.17c-.13-.09,1.71-1,2.33-1h21.78Z"/>
          <path class="cls-6" d="M711.58,84.04c4.75.33,11.68,1.88,16.28,3.22,1.3,1.01.97,5.26-.08,6.42-2.82,3.12-7.99,9.45-10.28,13.3-1.49,1.31-3.88,3.2-5,4.78l-6.03-.52c-7.38-.64-14.86-.2-22.25.04-16.55.53-31.66,4.52-47.68,8.14-19.38,4.38-37.64,9.14-54.8,19.46l-38.09,22.9c-1.87,1.12-4.24,2.19-5.89,2.88l-2.37-5.69c-1.64-3.94-3.13-7.57-4.83-11.1,15.44-16.78,34.23-30.11,54.97-41.02,25.74-13.54,52.9-21.44,82.04-23.64,15.09-1.14,29.52-.19,44.02.82Z"/>
          <path class="cls-34" d="M537.76,164.66l-21.26,17.08-4.88-4.78c-.98-1.62-2-3.34-2.92-4.16,5.21-9.85,14.51-16.95,21.86-24.93,1.7,3.53,3.19,7.16,4.83,11.1l2.37,5.69Z"/>
          <path class="cls-49" d="M516.5,181.74c-12.9,10.37-31.72,36.59-41.69,50.02,4.77-14.55,22.88-47.77,33.88-58.96.92.82,1.94,2.53,2.92,4.16l4.88,4.78Z"/>
          <path class="cls-26" d="M738.08,163.65c-2.02-.77-3.68-2.32-4.55-3.87-2.96-5.27-2.09-10.93,1.88-14.73,4.23-4.05,10.62-4.08,15.04-.44,4.16,3.42,5.31,9.58,2.76,14.17-2.89,5.2-8.68,7.33-15.13,4.86Z"/>
          <path class="cls-19" d="M562.57,234.71c-.28.37-1.46,1.08-1.96,1.08h-88.03s1.57-2.01,1.57-2.01c.47.29,2.52,1.05,3.38,1.05l85.04-.12Z"/>
          <path class="cls-4" d="M605.71,175.96c-.48,1.92-.39,4.6.6,6.48.76,1.45,4.22,2.75,6,2.23,3.58-1.04,5.11-5.35,3.9-8.55-.46-1.21-2.91-3.41-4.18-3.27-1.45.15-3.99,1.22-5.39,1.99l-2.15-.29c2.52-3.79,6.15-4.62,10.25-2.72,3.11,1.45,4.85,5.48,3.6,9.58-1.51,4.97-6.14,6.86-10.66,5.06-3.82-1.52-5.07-5.84-3.84-10.2l1.87-.31Z"/>
          <path class="cls-31" d="M605.71,175.96l.92-1.12c1.4-.77,3.95-1.84,5.39-1.99,1.26-.13,3.72,2.06,4.18,3.27,1.2,3.2-.32,7.51-3.9,8.55-1.77.52-5.23-.78-6-2.23-.99-1.89-1.07-4.56-.6-6.48ZM614.64,178.81c0-2.06-1.67-3.74-3.74-3.74s-3.74,1.67-3.74,3.74,1.67,3.74,3.74,3.74,3.74-1.67,3.74-3.74Z"/>
          <circle class="cls-2" cx="512.28" cy="281.85" r="7.79"/>
          <circle class="cls-47" cx="610.9" cy="178.81" r="3.74"/>
        </g>
      </g>
    </g>
  </g>
</svg>