<svg class="svg-icon" viewBox="0 0 781.992 385.075" xmlns="http://www.w3.org/2000/svg">
<path class="fill-color-gray" d="M434.853,276.685c0,7.043,4.042,10.5,10.662,10.5s10.662-3.453,10.662-10.5V221.547h.27l38.465,59.788c2.837,4.39,5.136,5.846,12.148,5.846,9.314,0,13.093-4.915,13.093-13.549V198.557c0-7.042-4.047-10.5-10.667-10.5s-10.656,3.46-10.656,10.5v56.73h-.271l-38.738-61.512c-2.429-3.984-6.482-5.72-11.071-5.72-9.443,0-13.9,3.728-13.9,12.768v75.862ZM529.61,272.7c0,9.706,5.131,14.444,12.961,14.444H588.73c6.344,0,11.471-4.874,11.471-10.853s-5.127-9.167-11.471-9.167H551.741V198.958c0-6.512-4.316-10.9-11.068-10.9s-11.063,4.391-11.063,10.9V272.7Zm76.266,3.591c0,6.515,4.324,10.894,11.068,10.894s11.074-4.379,11.074-10.894V250.374h24.564c21.465,0,33.749-12.885,33.749-30.291,0-21.261-14.986-30.292-33.608-30.292H618.837c-7.824,0-12.961,3.058-12.961,12.75v73.746Zm22.142-69.754h18.359c10.927,0,17.815,3.985,17.815,13.55,0,8.241-6.617,13.549-15.519,13.549H628.018Z" id="path932"></path>
<path class="fill-color-main" d="M259.105,273.983c0,9.7,5.127,12.756,12.957,12.756h26.59c29.563,0,46.7-17.533,46.7-47.828,0-37.469-22.138-47.833-46.3-47.833H272.062c-7.83,0-12.957,3.061-12.957,12.756v70.149Zm22.136-66.314h18.491c16.2,0,23.485,11.427,23.485,30.295,0,14.745-5.667,30.3-23.349,30.3H281.241ZM427.1,204.481a18.646,18.646,0,0,0,1.351-6.38c0-7.3-5.675-9.7-11.2-9.7-5.131,0-8.369,3.055-10.4,9.567l-20.782,65.11H385.8l-19.975-65.11c-2.028-6.512-5.266-9.567-11.2-9.567-5.534,0-11.206,2.4-11.206,9.7a18.7,18.7,0,0,0,1.348,6.38l27.27,75.47c2.293,6.244,6.617,7.57,13.5,7.57s11.2-1.326,13.494-7.57Z" id="path936"></path>
<path class="fill-color-gray" d="M578.146,89.983c-163.235,101.107-265.566,36.6-324.423,66.662-48.093,24.573-45.336,114.794-157.718,130.18C212.352,258.575,193.4,167.71,247.672,140.018c49.036-25.026,157.624,44.759,330.474-50.035" id="path948"></path>
<path class="fill-color-main" d="M240.376,119.976c-50.411,23.644-36.981,106.87-112.91,148.6C206.6,232.5,196.944,157.9,245.208,133.27,291.13,109.833,389.272,169.53,543.492,99.4c-171,66.482-251.7-3.54-303.116,20.575" id="path952"></path>
<path class="fill-color-main" d="M237.921,113.246c-42.385,19.876-39.631,81.894-82.836,125.94,44.592-54.719,31.485-114.493,78.307-138.392,45.914-23.443,102.884,43.3,273.764,3.675C359.127,150,285.815,90.784,237.921,113.246" id="path956"></path>
</svg>