<?xml version="1.0" encoding="UTF-8"?>
<svg id="Ebene_2" data-name="Ebene 2" xmlns="http://www.w3.org/2000/svg" viewBox="0 0 376.03 318.58">
  <defs>
    <style>
      .cls-1 {
        fill: #29acda;
      }

      .cls-2 {
        fill: #84b044;
      }

      .cls-3 {
        fill: #872c7f;
      }

      .cls-4 {
        fill: #84b545;
      }

      .cls-5 {
        fill: #5e9c3b;
      }

      .cls-6 {
        fill: #65a03c;
      }

      .cls-7 {
        fill: #7db242;
      }

      .cls-8 {
        fill: #609c37;
      }

      .cls-9 {
        fill: #212761;
      }

      .cls-10 {
        fill: #1d7bb5;
      }

      .cls-11 {
        fill: #529633;
      }

      .cls-12 {
        fill: #283076;
      }

      .cls-13 {
        fill: #1c4682;
      }

      .cls-14 {
        fill: #2c3a87;
      }

      .cls-15 {
        fill: #7fb23f;
      }

      .cls-16 {
        fill: #1e5e96;
      }

      .cls-17 {
        fill: #1f5a9e;
      }

      .cls-18 {
        fill: #24a2d5;
      }

      .cls-19 {
        fill: #8abb45;
      }

      .cls-20 {
        fill: #233172;
      }

      .cls-21 {
        fill: #5a1f60;
      }

      .cls-22 {
        fill: #1d72b1;
      }

      .cls-23 {
        fill: #68a33a;
      }

      .cls-24 {
        fill: #1f7bae;
      }

      .cls-25 {
        fill: #1d74ad;
      }

      .cls-26 {
        fill: #762871;
      }

      .cls-27 {
        fill: #1f84bb;
      }

      .cls-28 {
        fill: #278fc2;
      }

      .cls-29 {
        fill: #90bc44;
      }

      .cls-30 {
        fill: #1d6c9f;
      }

      .cls-31 {
        fill: #1d225b;
      }

      .cls-32 {
        fill: #2b4a98;
      }

      .cls-33 {
        fill: #304a99;
      }

      .cls-34 {
        fill: #7db443;
      }

      .cls-35 {
        fill: #478d34;
      }

      .cls-36 {
        fill: #1e65a4;
      }

      .cls-37 {
        fill: #1d659d;
      }

      .cls-38 {
        fill: #83b445;
      }

      .cls-39 {
        fill: #268bc5;
      }

      .cls-40 {
        fill: #b6d55f;
      }

      .cls-41 {
        fill: #c2dd64;
      }

      .cls-42 {
        fill: #2482b7;
      }

      .cls-43 {
        fill: #68a83d;
      }

      .cls-44 {
        fill: #912f85;
      }

      .cls-45 {
        fill: #2a337f;
      }

      .cls-46 {
        fill: #72a942;
      }

      .cls-47 {
        fill: #94bc4c;
      }

      .cls-48 {
        fill: #b6d459;
      }

      .cls-49 {
        fill: #67a53c;
      }

      .cls-50 {
        fill: #2cb1d8;
      }

      .cls-51 {
        fill: #1e528d;
      }

      .cls-52 {
        fill: #1f7fb8;
      }

      .cls-53 {
        fill: #217caa;
      }

      .cls-54 {
        fill: #8eba48;
      }

      .cls-55 {
        fill: #3f1549;
      }

      .cls-56 {
        fill: #273d85;
      }

      .cls-57 {
        fill: #2a4590;
      }

      .cls-58 {
        fill: #42843a;
      }

      .cls-59 {
        fill: #3456a3;
      }

      .cls-60 {
        fill: #2aa9d4;
      }

      .cls-61 {
        fill: #672e6c;
      }

      .cls-62 {
        fill: #2a3575;
      }

      .cls-63 {
        fill: #269ece;
      }

      .cls-64 {
        fill: #1960a2;
      }

      .cls-65 {
        fill: #7f2b79;
      }

      .cls-66 {
        fill: #2e529f;
      }

      .cls-67 {
        fill: #2c3c80;
      }

      .cls-68 {
        fill: #92bc44;
      }

      .cls-69 {
        fill: #293c86;
      }

      .cls-70 {
        fill: #1d5d95;
      }

      .cls-71 {
        fill: #a1c84e;
      }

      .cls-72 {
        fill: #74ab3d;
      }

      .cls-73 {
        fill: #67246a;
      }

      .cls-74 {
        fill: #1b1c54;
      }

      .cls-75 {
        fill: #abce55;
      }

      .cls-76 {
        fill: #1a69a9;
      }

      .cls-77 {
        fill: #973288;
      }

      .cls-78 {
        fill: #1e5499;
      }

      .cls-79 {
        fill: #2090c7;
      }

      .cls-80 {
        fill: #229bcf;
      }

      .cls-81 {
        fill: #2eb4e0;
      }

      .cls-82 {
        fill: #193f7b;
      }

      .cls-83 {
        fill: #a3c652;
      }

      .cls-84 {
        fill: #1d7cb4;
      }

      .cls-85 {
        fill: #28357e;
      }

      .cls-86 {
        fill: #1d70a6;
      }

      .cls-87 {
        fill: #4a1a52;
      }

      .cls-88 {
        fill: #9d388b;
      }

      .cls-89 {
        fill: #1e83b9;
      }

      .cls-90 {
        fill: #fefefb;
      }

      .cls-91 {
        fill: #7ca842;
      }

      .cls-92 {
        fill: #1e6aa7;
      }

      .cls-93 {
        fill: #1d6eaa;
      }

      .cls-94 {
        fill: #94c149;
      }

      .cls-95 {
        fill: #9bc24b;
      }

      .cls-96 {
        fill: #1d65a2;
      }

      .cls-97 {
        fill: #43174c;
      }

      .cls-98 {
        fill: #5d9d37;
      }
    </style>
  </defs>
  <g id="Ebene_1-2" data-name="Ebene 1">
    <g>
      <path class="cls-90" d="M365.99,100.6c1.59.5,9.81,3.02,9.99,3.51.56,3.33-3.41,4.25-4.99,5.49.02.68-.32,1.02-1,1-4.99,7.52-17.94,12.4-26.7,14.92l-3.3-.92c-.52.73-1.08,1.44-1.72,2.04-2.82,2.65-31.75,12.03-38.23,14-1.64.5-3.39.23-5.05-.04l-1.89,3.02c-9.47,4.12-18.79,8.55-27.54,14.08l-3.57-.09c-.59,2.82-3.04,5.09-7.33,6.83-2.23,2.38-4.45,3.44-6.67,3.17-2.63,3.57-5.94,6.69-9.93,9.37l-9.87,9.35-3.19.29c-10.67,12.44-20.87,25.29-30.61,38.57l-3.39,1.43-.21,3.87c-3.08,5.92-10.52,17.85-14.51,23.12-.8,1.05-2.08,1.57-3.28,2l-10,1c-.17-.91-.3-1.83-.29-2.74.05-6.52,14.34-32.6,18.96-39.3,1.81-.47,3.27-1.45,4.33-2.97l.07-3.6c6.2-8.67,13.14-16.81,20.42-24.6l3.52-.8.3-3.17c7.4-7.42,15.3-14.39,23.52-20.89l3.18.06c1.05-4.75,8.2-9.56,13-9,5.53-7.72,16.61-13.78,26-15,2.57-4.79,11.69-9.31,17-8,.53-.76,1.1-1.5,1.76-2.12,2.95-2.8,28.4-10.9,32.56-10.46.9.09,1.79.32,2.68.59,1.23-.29,1.73-1.05,1.44-2.46,12.9-1.09,24.09-4.94,33.56-11.54.27-.86.6-.85,1,0Z"/>
      <path class="cls-7" d="M292.99,230.6l1.95.84c4.09,5.19,8.93,9.99,14.53,14.39l-.48,2.77c-1.38,2.17-2.22,4.01-4,6l-2.4.24c-2.51-2.69-6.01-4.02-9.58-4.6.87,5.36-.14,7.82-3.02,7.35-.24-1.36.34-6.67,0-7.01-1.02-1.02-23.7,1.19-27.28.01-1.76-.58-2.52-7.38-9.46-8.76s-11.55.54-14.76,6.75c-1.08-.43-5.73-21.35-5.55-22.49s10.69-10.07,11.78-10.34c2.84-.69,5.34,1.18,8.49.65,2.63-.44,6.09-3.51,7.25-3.48,3.84.1,26.65,15.99,32.52,17.66Z"/>
      <path class="cls-89" d="M131.99,200.6l.59-2.23c4.47-.05,1.62-6.89-1.7-7.7-7.26.26-11-2.42-11.21-8.06-13.13,2.34-29.49-3.59-35.78-15.94-1.83-3.58-4.26-11.39-3.9-15.07,1.57-2.44,3.32-5.11,4.02-8,20.9,9.42,43.73,23.08,60.51,38.97,21.1,19.99,12.61,18.33-12.53,18.03Z"/>
      <path class="cls-92" d="M34.99,169.6c1.9-2.8,12.83,1.68,13,5-5.61,6.73-3.48,16.51,4.7,19.8,3.3,1.33,7.68.59,9.81,2.19,3.08,2.3,16.61,31.19,19.47,32.58,3.14.05,6.39-3.01,9.01-4.56l5.03-2.05c7.23,2.97,14.18,6.96,20.87,11.97,5.77-5.66,10.18-5.63,17.76-4.51,3.2.47,9.57,1.51,10.34,4.59-.29,1.25-.85,2.31-1,3-1,2.23-3.73,3.15-8.2,2.76.42,2.28-.18,3.69-1.8,4.24-4.43-4.6-9.76-2.3-15-3-.98,1.47-1.84,2.08-3.45,1.44l-25.39-7.28c-8.02,2.37-15.14,1.99-21.34-1.16-.21-9.45-4.18-13.6-11.9-12.46.57,2.93-.07,4.75-1.91,5.47.91-15.65-4.91-14.64-11.83-24.67-7.4-10.72-9.47-20.57-8.17-33.33Z"/>
      <path class="cls-77" d="M92.99,86.6c.77,2.52.94,5.1.52,7.74-4.59,3.49-10.1,5.88-16.54,7.15-2.75,2.4-5.41,3.77-7.98,4.11l-3.6,1.26c-5.94-.55-32.37-9.12-34.66-13.28-.34-.61-.55-1.29-.74-1.98-3.33,1.62-8.48-2.39-8-6-.02-4.26,10.06-11.89,12.5-7-.7-3.04,14.3-2.36,15.09-2,.74.34,1.11,1.21,1.41,2-3.06-.4-2.93-7.34,0-8,14.96,5.64,26.9,8.88,42,16Z"/>
      <path class="cls-50" d="M176.99,19.6c.45,10.92-5.83,10.99-15.79,9.48l-17.74-3.5c-5.7,2.25-10.85,2.26-15.47.02l-2.68.82c-6.48-3.45-13.28-6.59-20.61-7.64l-1.72-2.18c21.25-16.03,59.41-27.35,74,3Z"/>
      <path class="cls-1" d="M336.99,65.6c2.95.86,2.71,3.47-.72,7.82,3.85,1.79,7.28,4.5,10.31,8.13,2.47.42,3.94,1.44,4.42,3.06,1.37,2.9-3.45,6.9-6,5-.76,3.13-3.37,5.35-7.83,6.66-3.76,1.91-10.64,5.29-14.17,3.34-7.04,1.1-27.82-4.5-31.58-10.26-2.56-3.93-2.43-6.3,1.58-8.74,14.79-6,30.25-9.43,44-15Z"/>
      <path class="cls-46" d="M304.99,254.6c-3.93,4.41-7.79,7.67-12.98,10.52s-20.48,6.7-21.37,7.39c-.56.44-3.65,9.97-5.64,13.1l-2.5-.29c-3.85,9.15-8.59,9.92-18.24,3.63-.26,1.32-.64,2.37-2.26,2.67l-3-29.99c6.87,4.45,11.73,7.06,19.35,1.84,2.15-1.47,3.18-5.47,4.38-5.86,4.92-1.62,23.57,1.71,27.27,0,2.06-.95.62-6.16,1.01-8.01l-14-.98c9.38-1.28,21.93-2.05,27.99,5.99Z"/>
      <path class="cls-44" d="M92.99,86.6c14.01,6.61,24.25,12.04,37,21,6.19,6.49-8.05,16.91-14,15l-4.29.19c-12.68-5.72-25.95-10.07-39.45-13.38l-3.26-2.81c-.86-.33-.86-.67,0-1,8.15-10.18,15.61-5.9,22.55-11.99,3.03-2.66-3.85-6.82,1.45-7.01Z"/>
      <path class="cls-17" d="M84.99,250.6c.99,1.31.75,6.75,1.01,6.99,1.12,1.02,22.43-1.17,26.31.19,1.46.51,3.39,4.74,5.73,6.27,13.96,9.09,20.38-11.32,23.94-7.45.71.78-1.28,18.46-1.99,21-2.17,2.42-12.33,7.86-16.77,7.5s-8.13-3.52-10.43-7.09c-4.2.82-7.46.02-9.8-2.41-3.64-6.37-5.93-3.09-11.94-5.56-11.47-4.7-17.13-7.71-25.06-17.44l1.19-2.47c2.9-1.46,15.99-2.84,17.81.47Z"/>
      <path class="cls-31" d="M112.99,68.6c1.92-2.1,2.91-1.87,3,1,.78-.18,1.57-.33,2.35-.33,5.25-.05,25.36,13.38,27.65,19.33l4.08.77c13.42,11.6,24.56,25.6,32.92,41.23,1.02,2.39,1.48,5.13,3.51,6.99.48.06,1.09-2.99,1.49-3.99,1.4-2.18,2.4-2.51,3-1,.38.81.72,1.81,1,3-.95,1.08-4.53,7.93-5.5,7.98-22.56-27.87-51.72-52.85-84.5-67.98-.73-3.71,7.42-7.83,11-7Z"/>
      <path class="cls-93" d="M90.99,224.6c2.98-1.77,13.8-10.24,15.99-10.62,3.77-.64,6.66,5.34,15.7.81,5.13-2.57,4.84-7.19,5.31-7.19h25c-3.14,8.74-5.94,17.96-8,27-6.55-1.27-12.5-4.08-19.54-3.03-4.94.73-5.89,5.26-8.73,4.91-5.32-.65-17.87-15.59-25.74-11.88Z"/>
      <path class="cls-88" d="M50.99,70.6v8h-16.5c-5.95,0-8.27,4.44-12.5,7l-3.34-.22c-6.11-5.38-11.37-11.72-15.1-18.98-.58-.57-1.34,13.73-.8,16l-1.76,3.21L0,27.6c9.26,29.06,25.56,33.41,50.99,43Z"/>
      <path class="cls-54" d="M299.99,207.6c.66-2.43.43-8.3,1.5-10,.97-1.56,4.73-1.7,6.55-3.45,8.76-8.41,1.71-15.37,2.99-17.48.69-1.13,21.84-7.88,24.95-9.08,5.52,11.66-6.51,42.35-17.99,46-.75,2.41-3.28,2.61-7.59.59-3.11-.83-10.97-3.27-10.41-6.59Z"/>
      <path class="cls-36" d="M54.99,227.6c-.09-1.52-.35-8.75.49-8.99,3.01,3.25,8.54.84,11.51,3.49,2.27,2.03,2.65,10.55,3.59,11.62,3.29,3.72,17.81-.22,19.75.05,5.37.75,19.13,6.56,28.65,7.83-5.5,13.42-21.27,8.77-34,9-5.7.1-13.12-.1-19,2-6.46-7.93-10.39-14.31-11-25Z"/>
      <path class="cls-84" d="M79.99,151.6c5.53,7.98,3.38,16.08,12.07,22.43,1.67,1.22,14.99,7.15,16.71,7.38,3.51.46,8.8-1.95,11.59-.67,2.46,1.13,1.06,4.47,2.62,6.42,1.18,1.48,8.4,0,11.58,3.37,2.01,2.14,1.73,6.69,4.43,9.05-2.11-1.11-6.2,1.03-7,1.01-6.62-.15-3.25-3.79-8.5-7-6.26-3.81-16.81-2.17-19.5,5-1.64.43-3.38-.22-5.22-1.92-12.13-2.76-17.29-9.93-23.67-19.71-2.81-1.37-5.18-2.83-7.11-4.37.85-3.48,9.5-17.1,12-21Z"/>
      <path class="cls-40" d="M265.99,16.6l-1.62,2.33c-7,2.05-13.53,5.17-19.61,9.36l-2.76-.69c.42,3.4-7.37,6.56-10,6-.28.87-.62.86-1,0,4.51-11.35-6.96-21.43-18-17-3.19.72-6.47-9.05-4-11,23.78-12.46,38.2-2.04,57,11Z"/>
      <path class="cls-18" d="M292.99,80.6c-7.65,12.9,21.6,15.14,30,19,.8,2.94-.43,3.16-3,2-.32.64-.66,1.26-1.11,1.8-1.72,2.05-27.2,8.14-32.26,9.11l-3.64-.9-1.86.57c-7.61-5.42-15.55-9.31-23.81-11.68l-1.33-1.89c12.26-7.36,23.76-12.63,37-18Z"/>
      <path class="cls-25" d="M67.99,172.6c11.04-1.36,11.67,11.92,20.63,17.83,4.16,2.74,12.52,3.23,15.37,8.17-1.06,2.82.13,9.29-.12,9.83-.49,1.02-18.57,11.33-19.86,10.73-1.75-4.81-16.62-24.31-16.83-27.25-.09-1.21,2.67-3.98,2.9-7.79.36-5.85-3.15-7.12-2.07-11.52Z"/>
      <path class="cls-21" d="M115.99,122.6c2.51-1.23,3.37-.42,2,2,.25,1.6-.73,2.84-2.94,3.73-4.81,7.21-10.16,9.63-16.06,7.27-14.5-7.37-30.54-12.96-46-18l1.33-2c5.2-.56,9.31-3.65,12.33-9.28l2.33.29c15.4,3.45,32.83,9.12,47,16Z"/>
      <path class="cls-49" d="M219.99,293.6c1.91,7.58-12.14,12.48-18,11-15.29-12.49-14.47-33.72-.98-46.99,4.29-1.82,17.49,31.86,18.98,35.99Z"/>
      <path class="cls-79" d="M249.99,102.6l1.78,1.5c.67,6.09,5.02,10.16,13.06,12.22l.17,2.27c1.09,2.64-1.78,5.1-4,3l-1.21,2.79c-7.2,3.41-14.13,7.27-20.78,11.63l-3.01-.42c.35,3.46-7.03,7.41-10,6-5.55,4.22-13.18-2.46-14-8,12.75-13.12,22.66-21.06,38-31Z"/>
      <path class="cls-81" d="M371.99,55.6c-1.86,11.4-9.03,21.41-17.84,28.91l-3.16.09c-9.98.13-8.06-9.83-18-9.01-.79-.77,5.83-7.91,4-9.99,17.38-7.04,30.54-20.01,34.02-38.99,1.82,9.43.96,19.42.98,28.99Z"/>
      <path class="cls-73" d="M68.99,105.6c-.16.2.16.8,0,1-4.96,6.05-6.69,11.25-16,11-14.23-4.63-38.21-5.54-47-18l1.84-2c6.92-.22,13.79-2.24,19.41-6.35l2.75.35c11.45,6.89,25.95,11.26,39,14Z"/>
      <path class="cls-78" d="M139.99,277.6c-1.44,3.68,2.42,32.47-.45,32.97-7.04,1.23-26.29-14.54-30.38-20.64-2.89-4.32-4.15-10.81-6.17-14.33l10.73.77c10.01,12.33,12.89,4.67,25.13,1.11l.15-6.87.99,6.99Z"/>
      <path class="cls-87" d="M117.99,124.6c6.24.63,12.29,3.26,18.13,7.9,6.77,3.29,11.72,7.65,14.87,13.1l.56,2.47c-2.03,4.41-15.77,9.77-20.56,7.53-9.88-7.13-21.14-14.48-32-20,10.81,1.03,10.88-8.87,19-11Z"/>
      <path class="cls-53" d="M127.99,25.6c6.14,1.56,13.81,6.49,18.67,10.73l.33,2.27c.87.28.86.62,0,1-6.5,6.06-13.98,6.44-22,4-10.38-6.07-22.33-11.82-34-15.01-1.67-2.06,10.5-10.86,12-11.99,8.51.56,17.62,4.93,25,9Z"/>
      <path class="cls-3" d="M158.99,131.6c-1.16,6.25.47,10.79,3.79,16.17,1.03,2.81.71,6.38-2.79,4.83-3.02,1.24-9.73-3.7-9-7-10.65-8.62-20.84-14.81-33-21-.58-.29-1.27-1.65-2-2,6.5-4.33,14.42-5.08,14-15,10.39,7.29,20.03,15.01,29,24Z"/>
      <path class="cls-82" d="M176.99,199.6c5.19-4.01,3.45,3.15,1.02,6.59.72,5.26,1.38,5.59,5.74,4.72.86-.17,1.6.06,2.24.7-9.48,13.99-16.49,29.49-23,45-2.18,5.2-9.77,29.92-11.02,31-2.6,2.25-2.04-4.4-2.02-5.53.1-6.59,2.13-14.83,3.04-21.46,3.97-18.44,9.13-36.52,17.13-53.66.32-.69.95-1.25,1.62-1.83s1.45-1.06,2.25-1.51c-2.33-2.05.26-4.88,3-4Z"/>
      <path class="cls-27" d="M38.99,140.6c-.53-1.42-7.47-15.17-3.52-15.96l42.51,14.98c.95,1.5-9.37,17.32-10.99,19.98-5.49-1.64-10.28-4.03-14.35-7.19-3.81-5.56-7.14-9.96-13.65-11.81Z"/>
      <path class="cls-38" d="M299.99,207.6c3.09,1.86,15.24,6.88,18,6,1.4,13.18-2.07,24.12-9,35-3.45-5.92-16.98-12.21-16-18,.9-5.34,5.27-16.63,7-23Z"/>
      <path class="cls-97" d="M159.99,152.6c4.86-.47,12.63,9.07,11,14-2.84,5.31-5.59,10.73-8.49,15.99-9.93-9.62-20.29-18.9-31.51-26.99,8.35-3.31,13.8-1.97,20-10,2.79,2.26,6.52,4.67,9,7Z"/>
      <path class="cls-60" d="M176.99,19.6c8.18,17.01,2.14,41.38,4,60-3.17-2.03-4-12.63-1-15-2.29-6.15-2.94-13.05-1.93-20.68-8.55-.75-17.24-1.54-26.08-2.38-1.82-.82-3.49-1.8-4.99-2.94-3.55-.87-14.26-10.39-19-13,5.17,1.69,11.5-2.07,15.5-2.02,4.59.06,27.73,7.75,31,2.02,1.35-2.37-1.18-6.56,2.5-6Z"/>
      <path class="cls-33" d="M297.99,35.6c3.99-.6,12.48,6.08,12,10,1.36,3.02-.88,4.98-4,4-.95,3.22-3.71,5.4-8.31,6.55l-18.95,6.48-2.74-1.03-2.78.55c-1.86-.54-13.42-8.13-12.22-10.55,13.25-7.19,24.03-10.2,37-16Z"/>
      <path class="cls-74" d="M236.99,81.6c3.62,1.36,7.59,2.19,11.91,2.5l1.09,2.5c-21.9,12.97-41.25,29.95-58,49-3.6.38-1.45-1.1-1-3-.55-.28-.98-.57-.99-.87-.08-3.83,15.1-27.79,18.27-29.1l2.72-.03.45-3.4c6.58-6.88,14.25-12.53,22.16-17.75l3.38.15Z"/>
      <path class="cls-10" d="M38.99,140.6c-1.72-3.28,7.58,1.24,7.93,1.52,2.87,2.33,6.47,8.93,9.16,10.9,3.88,2.84,11.33,2.13,10.92,6.58-.88,1.45-4.64,10.55-5.17,10.83-3.07,1.61-8.73-1.95-13.83,4.17l-13-5c.86-8.48,7.98-20.32,8-21.48.02-1.07-3.14-5.24-4-7.52Z"/>
      <path class="cls-4" d="M289.97,221.59c-4.69-5.36-31.44-11.42-24.97-20.49.72-1.01,20.28-12.6,21.52-12.54.57.03,8.17,7.15,8.33,7.69,1.12,3.85-5.05,20.11-4.88,25.34Z"/>
      <path class="cls-66" d="M81.99,38.6c2.94,1.41.3,5.97-1.64,7.49-5.26,4.15-10.61,4.56-16.36,1.51l-3.21.12c-6.57-5.24-12.18-11.18-16.84-17.82.51,4.37-.13,7.93-1.94,10.7l-.99-35.99c7.4,21.65,22.59,25.61,40.99,33.99Z"/>
      <path class="cls-28" d="M371.99,55.6c.03,14.7,2.76,32.49-6,45-.3-.1-.7.1-1,0-1.99,1.92-3.86,2.56-5.6,1.92l-14.44-10.47.03-2.45c1.94-1.31,4.15-3.42,6-5,4.63-3.95,8.96-8.02,12.4-13.1l8.6-15.9Z"/>
      <path class="cls-11" d="M223.99,201.6c4.02,1.99,10.54,8.81,6,13-8.85,7.58-19.24,17.35-27,26-7.59,5.92-9.17-5.58-6-11,.02-.84.08-1.67.26-2.47.92-3.95,18.41-22.94,22.28-24.11.79-.24,1.62-.35,2.46-.42-.66-2.7.13-3,2-1Z"/>
      <path class="cls-26" d="M21.99,85.6c2.62,2.16,5.08,4.24,8,6-6.54,5.67-15.91,8.22-24,8-3.74-5.3-4.37-7.61-5-14-.96-9.74.29-20.25.5-30.01,3.31,12.17,10.97,22.15,20.5,30.01Z"/>
      <path class="cls-98" d="M253.99,179.6c3.05-1.4,9.72,8.21,8,11-10.64,6.91-22.36,15.74-32,24,1.51-5.45-4.24-7.09-6-13l.73-3.26c8.14-7.03,16.78-13.36,25.93-19.01l3.34.28Z"/>
      <path class="cls-32" d="M114.99,53.6l-1.13,2.79c-7.24,3.26-15.03,5.47-22.87,3.21-2.8,1.76-16.8-2.45-18.94-4.26-.75-.64-.92-1.76-1.06-2.74-2.65,1.98-8.12-1.94-7-5,8.22.3,15.97.64,18-9,11.65,5.31,21.17,8.22,33,15Z"/>
      <path class="cls-30" d="M146.99,39.6c1.42-.3,3.84.7,5.09,1.58,4.18,2.95,15.88,20.05,18.99,25.32l-1.08,2.1c2.63.66,2.56,1.23,0,2-.73,3.83-4.06,3.83-10,0-9.5-9.89-23.15-20.08-35-27,2.95-3.85,5.01.51,9.38-.02,3.35-.41,9.26-4.68,12.62-3.98Z"/>
      <path class="cls-52" d="M225.99,141.6c.25,3.54-4.5,7.92-8,7-1.66,4.28-4.82,8.12-9.49,11.52-3.4,4.64-7.24,7.8-11.51,9.48-2.84,3.21-11.36-1.56-9-6,8.13-12.29,13.71-19.41,24-30,4.75,3.24,7.18,9.21,14,8Z"/>
      <path class="cls-14" d="M260.99,51.6l15,10c.21,3.45-2.02,3.94-5,3l-1.65,2.89c-8.92,3.24-17.57,7.05-25.97,11.43l-3.38-.32c-3.93,2.86-4.62-2.85-3.28-6.07-2.05.39-3.29-.25-3.72-1.93,7.7-8.42,18.12-13.64,28-19Z"/>
      <path class="cls-68" d="M265.99,16.6c4.31,2.99,11.57,4.79,14.98,10.5-8.08,4.41-16.86,7.15-24.98,11.5l-2.59.5c-1.75-.63-12.82-9.21-11.41-11.5,7.55-4.38,15-9.66,24-11Z"/>
      <path class="cls-20" d="M70.99,52.6c6.49,3.41,14.01,4.44,20,7,7.79.88,17.12,2.71,22,9l-11,7c-13.09-6.04-27.53-9.88-41-15-1.54-3.05,7.11-9.44,10-8Z"/>
      <path class="cls-56" d="M63.99,47.6c2.15,1.53,4.69,3.79,7,5l-10,8c-12.94-4.92-17.17-3.25-19-20-.63-5.78.05-12.21.49-17.99,5.84,10.68,11.53,17.89,21.51,24.99Z"/>
      <path class="cls-35" d="M202.99,240.6c-9.34,10.4-16.88,22.42-26,33-2.98,1.25-9.53,3.13-10-1,1.02-1.88,2.02-4.32,3-6,4.75-12.47,14.57-25.82,23.41-35.93l2.59-.07c-.28-.95.05-1.28,1-1,1.47,4.75-1.94,12.75,6,11Z"/>
      <path class="cls-9" d="M270.99,64.6c3.45-1.28,11.19,2.28,11,6-10.85,4.4-21.93,10.03-32,16-5.37-2.43-9.32,1.22-13-5-1.7-2.4.41-4.6,3-3,10.84-6.68,19.92-9.13,31-14Z"/>
      <path class="cls-62" d="M321.99,56.6c-8.2,5.51-29.37,9.69-40,14l-11-6c1.35-.59,3.34-2.27,5-3,10.04-4.38,19.85-5.35,30-12,1.34-2.44,15.02,3.93,15.53,4.61s.56,1.56.47,2.39Z"/>
      <path class="cls-59" d="M329.99,42.6l-1.8-1.99-.2-12c-3.62,6.71-9.05,12.19-14.88,17.02l-3.12-.03-12-10c16.27-7.27,27.18-12.76,32.99-30.99l-.99,37.99Z"/>
      <path class="cls-69" d="M152.99,82.6c2.62,4.22-2.81,9.19-7,6-9.11-7.25-19.51-13.96-30-19-.15-1.96,1.38-3.82,4.59-5.58,1.07-2.91,2.54-4.38,4.41-4.42,10.29,6.77,19.46,14.09,28,23Z"/>
      <path class="cls-83" d="M191.99,28.6l2.12-1.11,11.88,4.11c.89,5.54,8.1,7.65,8.82,9.68.83,2.35.06,8.26.18,11.32-.28.87-.62.86-1,0l-2.84,1.44c-6.24-3.72-11.95-5.42-17.15-5.09v32.31s-2.01,7.34-2.01,7.34c2.28,1.67,1.79,2.5-1,2-.58-16.75-1.93-46.33,1-62Z"/>
      <path class="cls-80" d="M282.99,111.6c1.22,2.4.22,3.06-3,2-1.4,3.83-11.46,6.77-15,5-7.43-3.45-17.11-5.93-15-16,2.04-1.32,3.87-2.72,6-4,8.82-1.31,19,8.78,27,13Z"/>
      <path class="cls-29" d="M352.99,134.6c1.35,1.18,2.25,3.07,2.72,5.66,2.26,2.43,3.02,4.54,2.28,6.34-8.1,7.49-23.38,8.81-34,13-3.14.91-8.45-3.96-7-7l1.68-2.78c9.73-3.59,19.53-7.27,28.05-13.33l3.26.11c-1.25-2.6.9-3.92,3-2Z"/>
      <path class="cls-67" d="M329.99,42.6c-.78,6.01-2.9,10.57-8,14l-16-7c1.77-1.16,2.82-3.05,4-4,8.38-6.77,15.21-13.58,19.02-23.99,1.21,6.15,1.79,14.83.98,20.99Z"/>
      <path class="cls-45" d="M232.99,70.6c.29-.07,5.78-.21,5.99,0,.91.95-3.26,6.84,1.01,8-1.25.77-2.21,2.47-3,3-10,6.63-17.77,12.01-26,21-2.1,2.03-6.1,1.26-6-2,4.39-6.33,21.23-28.26,28-30Z"/>
      <path class="cls-55" d="M217.99,239.6c1.51-1.44,2.76-2.09,3.81-.11l7.19,32.11c1.42,7.03,1.7,14.88,1.02,21.99l-18.83-44.77c-.92-4.05,4.15-6.82,6.82-9.22Z"/>
      <path class="cls-65" d="M158.99,131.6c2.97,2.98,19.23,20.48,19.58,22.93-1.64,4.43-5.39,7.99-7.58,12.07-2.31-5.35-6.87-10.12-11-14,3.91-2.55-2.01-7.74-3.02-12.48-.16-.76-1.29-9.44,2.02-8.52Z"/>
      <path class="cls-8" d="M214.99,52.6c.79,20.9-1.84,14.59-11.97,28.53-4.13,5.68-7.87,11.48-11.54,17.46-.99-2.47-.4-5.39-.49-7.99.71-.47.68-1.5,1-2,3.36-12.75,10.33-25.29,18.74-35.52l3.26-.48h1Z"/>
      <path class="cls-75" d="M212.99,16.6c-5.37,2.16-7.87,9.57-7,15-1.68,2.42-.32,2-2.63,1.17-3.9-1.41-8.26-2.22-11.37-4.17,2.03-10.87,7.33-17.93,17-23l4,11Z"/>
      <path class="cls-85" d="M182.99,130.6c-12.22-15.54-21.28-29.48-37-42,3.7.24,5.92-2.86,7-6,15.22,15.87,21.53,28.07,30,48Z"/>
      <path class="cls-72" d="M292.99,160.6c5.19-1.71,12.24,5.61,7,9-7.29,3.36-15.01,7.07-22,11-1.53-3.12-3.66-5.9-6.39-8.35l.39-2.65c-1.56-2.27-.48-3.28,2-2,3.07-4.98,13.36-8.23,19-7Z"/>
      <path class="cls-23" d="M271.99,169.6c3.04,4.14,7.2,4.57,6,11-4.91,2.76-11.17,6.86-16,10l-8-11c-2.02-1.79-1.7-2.14,1-2,1.87-4.94,11.95-9.1,17-8Z"/>
      <path class="cls-57" d="M114.99,53.6c3.44,1.97,6.67,3.81,10,6-2.06,6-3.66,7.01-9,10-.55-.26-1.77-.44-3-1-7.2-3.29-14.71-5.89-22-9,8.86-.82,16.04-1.84,24-6Z"/>
      <path class="cls-91" d="M231.99,33.6c2.91-2.1,4.48,0,4.71,6.31,5.12,1.98,6.89,4.21,5.29,6.69-6.61,4.15-12.58,9.56-19,14v-19.5c0-.55,6.79-4.45,8-7.5h1Z"/>
      <path class="cls-58" d="M176.99,273.6l-26,44.99c3.36-8.94,4.71-18.54,7.96-27.52.97-2.69,6.94-16.44,8.04-18.46,3.83,1.66,8.96-1.77,10,1Z"/>
      <path class="cls-64" d="M167.99,200.6c1.98-.66,3.98.34,6,3-9.21,18.04-14.43,37.93-21,57,2.88-21.07,7.15-40.26,15-60Z"/>
      <path class="cls-6" d="M241.99,291.6v-8.99c.14,4.61,11.99,10.3,15.86,7.85.52-.33,2.72-13.35,7.14-4.86-5.5,8.63-12.47,17.32-22.5,21.01l-.5-15.01Z"/>
      <path class="cls-95" d="M357.99,146.6c-3.2-3.23-6.29-7.88-5-12l-.18-2.47c6.8-6.29,12.53-13.47,17.18-21.53.37-.27.64-.71,1-1,.51,12.32-3.68,28.39-13,37Z"/>
      <path class="cls-15" d="M316.99,152.6l7,7c-8.02,3.16-16.17,6.39-24,10,1.79-3.45-3.97-8.23-7-9,4.51-4.98,12.28-7.69,19-7,.2-3.1,3.33-3.37,5-1Z"/>
      <path class="cls-2" d="M241.99,27.6l14,11c-4.64,2.49-9.55,5.2-14,8-.91-3.34-5.67-3.65-6.93-5.57-1.86-2.84.58-7.68-3.07-7.43,2.7-3.01,6.69-4.08,10-6Z"/>
      <path class="cls-43" d="M190.99,226.6c2.19-2.09,6.28,1.35,5,4-7.1,9.14-20.82,27.13-26,36-.78-2.97,1.69-8.35,3-11,4.84-9.78,11.87-19.93,18-29Z"/>
      <path class="cls-22" d="M187.99,163.6c2.57,4.59,4.25,4.31,9,6,2.29,1.36,1.65,2.24-1,2-1.04,6.13-7.54,14.06-13,17-1.48,2.7-8.2-2.2-7-5,3.72-7.29,7.51-13.22,12-20Z"/>
      <path class="cls-5" d="M219.99,293.6c.84,2.33,6.94,17.17,6,17.99-9.52.86-16.65-.99-24-6.99,6.37-3.13,15.1-3.28,18-11Z"/>
      <path class="cls-12" d="M210.99,102.6c-5.8,6.33-18.12,22.08-20,30l-3,1c5.6-13.87,8.39-20.58,17-33l6,2Z"/>
      <path class="cls-39" d="M180.99,79.6c.03,3.2.82,12-1,14-3.87-4.79-8.17-13.33-10.41-19.44l.41-3.56c-.22-.43.22-1.59,0-2-.6-3.15,8.06-6.47,10-4,.15,4.8.97,10.81,1,15Z"/>
      <path class="cls-76" d="M175.99,183.6l7,5c.97,4.05-1.96,9.8-6,11-.69,1.26-2.36,2.74-3,4-3.66.89-3.82-.94-6-3,2.39-6,5.08-11.28,8-17Z"/>
      <path class="cls-70" d="M169.99,70.6c3.89,7.5,7.71,14.79,10,23-.34.38-1.32.96-2,.55-1.27-.77-14.27-19.67-18-23.55,1.85-4.15,4.67,3.72,10,0Z"/>
      <path class="cls-96" d="M143.99,237.6c-.48,2.14.48,11.75-1.12,12.87-3.85,2.68-7.67-2.63-8.88-5.87-.11-.28-.22-4.96-1-5.99l11-1.01Z"/>
      <path class="cls-61" d="M228.99,271.6c-1.63-8.06-6.01-20.56-8.52-29.03-.48-1.63.17-3.54-2.48-2.97.68-.61,4.16-5.64,4.99-5l6.01,37Z"/>
      <path class="cls-48" d="M339.99,124.6c3.83-.32,11.21,8.42,10,12-11.05,8.23-20.47,11.2-33,16-1.61.62-3.76.52-5,1-6.62.2-13.3-5.6-17.65-10.44l.65-2.56c15.04-6.59,29.82-10.41,45-16Z"/>
      <path class="cls-51" d="M236.99,158.6c-8.62,6.58-19.5,16.18-27,24-7.71,4.25-14.92-3.12-14-11,.43-.52.58-1.5,1-2,6.02-7.14,13.9-14.92,21-21,2.41.16,4.93,1.38,7.54,3.65l10.96,3.95.5,2.4Z"/>
      <path class="cls-24" d="M319.99,101.6c4.72-2,17.88,10.91,10,13-12.23,3.68-25.17,7.25-37,12l-2.47.05c-1.26-1.07-8.5-8.99-9.77-10.56-.56-.69-.67-1.64-.76-2.49.95-.35,2.07-1.67,3-2,11.45-4.04,25.45-5.86,37-10Z"/>
      <path class="cls-71" d="M294.99,140.6c4.23,6.63,10.88,8.8,17,13-6.31,2.43-12.7,4.55-19,7s-12.94,4.19-19,7c-3.25,1.54-12.62-6.45-12-10,11.44-7.44,20.63-11.58,33-17Z"/>
      <path class="cls-13" d="M209.99,182.6c-8.14,8.49-17.43,19.31-24,29-4.59,4.58-9.49.96-9.99-4.62-.37-4.05,5.75-7.32.99-7.38,2-3.66,3.77-7.46,6-11,3.91-6.2,8.39-11.37,13-17,2.92,2.02,1.77,5.12,4.48,8.02,4.27,4.57,6.68.15,9.52,2.98Z"/>
      <path class="cls-42" d="M344.99,89.6l16.49,11.96c1.51-1.68,1.57-1.59,3.51-.96-4.72,11.04-24.15,10.74-35,14,5.3-1.64-7.52-11.78-10-13,.83-.3,1.97-1.61,3-2,8.29-3.15,14.36-4.85,22-10Z"/>
      <path class="cls-37" d="M260.99,121.6l2.29,1.24c1.25,7.92,4.44,10.67,9.59,8.26,3.04-.48,5.46.93,3.12,3.5-8.96,4.36-17.72,9.5-26,15-2.67.33-5.41-1.46-8.22-5.39-3.95-2.83-5.87-5.69-5.78-8.61,9.2-6.05,15.04-9.29,25-14Z"/>
      <path class="cls-19" d="M247.99,167.6c1.6,2.66,4.01,5.18,7.22,7.58l-.22,2.42c-.36.22-.63,1.77-1,2-12.07,7.45-19.32,12.76-30,22-.34.29-1.35.43-2,1-4.39,2.59-8.43-4.46-4.18-7.9l7.18-8.1c7.25-6.85,13.94-14.34,23-19Z"/>
      <path class="cls-86" d="M279.99,113.6c4.57,1.26,9.99,9.08,13,13-5.6,2.25-11.54,5.34-17,8-1.53-4.71-5.66,2.37-10.52-1.97-2.3-2.05-3.96-7.92-4.48-11.03,1.18-.56,2.85-2.49,4-3,4.28-1.89,10.4-3.33,15-5Z"/>
      <path class="cls-16" d="M235.99,135.6l14,14c-4.26,2.83-8.95,5.91-13,9-7.26-3.37-13.47-2.95-19-10,2.62-2.24,5.28-4.94,8-7,2.98-2.26,6.98-4.02,10-6Z"/>
      <path class="cls-34" d="M224.99,186.6c-2.41,5.99-13.18,10.31-3,16-9.44,8.39-17.19,17.11-25,27-.29.36-.72.63-1,1l-5-4c11.21-16.58,19.48-26.28,34-40Z"/>
      <path class="cls-41" d="M352.99,134.6c-.65.54-2.02,1.27-3,2l-10-12c9.9-3.64,21.02-7.49,30-14-1.33,9-10.34,18.42-17,24Z"/>
      <path class="cls-94" d="M273.99,167.6c-.63.29-1.36,1.69-2,2-5.51,2.67-11.75,4.85-17,8l-9-7.51c1.69.11,1.89-2.37,2-2.49,3.6-4.41,9.34-6.97,14-10l12,10Z"/>
      <path class="cls-63" d="M146.99,38.6c7.78,1.9,24.56,2.62,32.99,3,.19,7.64-.23,15.36,0,23l-10,4c-2.45-4.52-19.33-28.23-23-29v-1Z"/>
      <path class="cls-47" d="M191.99,88.6v-46.99s1.01,4.99,1.01,4.99c6.95-2.16,13.71,5.07,20.99,6-10.53,10.16-14.62,24.45-22,36Z"/>
    </g>
  </g>
</svg>